<svg xmlns="http://www.w3.org/2000/svg" width="52" height="50" viewBox="0 0 52 50">
  <g fill="none" fill-rule="evenodd" transform="translate(-19 -15)">
    <rect width="80" height="80"/>
    <g transform="translate(19.167 15)">
      <path fill="#0B1E5E" fill-rule="nonzero" d="M0.982097187,0 L40.2659847,0 C40.7696393,0 41.1847436,0.379128985 41.2414746,0.867563908 L41.2480818,0.982097187 L41.248,18.093 L25.7539082,33.5886604 L23.7169256,38.9350843 C23.5904988,39.2669141 23.6685397,39.64197 23.9168355,39.8958283 C24.163678,40.1482007 24.5376589,40.2282036 24.8661487,40.0989077 L24.8661487,40.0989077 L29.9092574,38.1139059 L41.248,26.774 L41.2480818,48.1227621 C41.2480818,48.6264168 40.8689529,49.0415211 40.3805179,49.098252 L40.2659847,49.1048593 L0.982097187,49.1048593 C0.478442552,49.1048593 0.063338236,48.7257304 0.00660728601,48.2372954 L3.23296945e-13,48.1227621 L3.23296945e-13,0.982097187 C3.23296945e-13,0.478442552 0.379128985,0.063338236 0.867563908,0.00660728601 L0.982097187,0 L40.2659847,0 Z M15.713555,41.2480818 L3.92838875,41.2480818 L3.92838875,43.2122762 L15.713555,43.2122762 L15.713555,41.2480818 Z M15.713555,37.3196931 L3.92838875,37.3196931 L3.92838875,39.2838875 L15.713555,39.2838875 L15.713555,37.3196931 Z M15.713555,33.3913043 L3.92838875,33.3913043 L3.92838875,35.3554987 L15.713555,35.3554987 L15.713555,33.3913043 Z"/>
      <path fill="#CCAE77" d="M50.6010511 15.8333708L28.9595575 37.4738824 24.5116393 39.3820972 26.4169078 34.9381074 48.0613477 13.2926854C48.575281 12.7797824 49.3474579 12.6267255 50.0181771 12.9048129 50.6888964 13.1829003 51.1264786 13.837436 51.1264786 14.5635192 51.1276631 15.0399303 50.9385094 15.4970811 50.6010511 15.8333708zM14.5806631 26.3933734C14.8840159 26.5756278 15.261964 26.5805808 15.5699887 26.4063385 15.8780133 26.2320962 16.068473 25.9056082 16.0685403 25.5517161L16.0685403 17.9640333C18.8542164 14.8053735 18.653853 10.0120215 15.6142896 7.09685834 12.5747261 4.18169513 7.77718834 4.18169513 4.73762488 7.09685834 1.69806142 10.0120215 1.49769805 14.8053735 4.28337411 17.9640333L4.28337411 25.5517161C4.2834414 25.9056082 4.47390113 26.2320962 4.78192578 26.4063385 5.08995044 26.5805808 5.46789857 26.5756278 5.77125134 26.3933734L10.1759572 23.7505499 14.5806631 26.3933734zM10.1759572 6.89186958C13.430341 6.89186958 16.0685403 9.53006891 16.0685403 12.7844527 16.0685403 16.0388365 13.430341 18.6770358 10.1759572 18.6770358 6.92157343 18.6770358 4.28337411 16.0388365 4.28337411 12.7844527 4.28662227 9.53141529 6.92291982 6.89511775 10.1759572 6.89186958zM6.24756848 23.8173325L6.24756848 19.578601C8.67488277 20.9953811 11.6770317 20.9953811 14.104346 19.578601L14.104346 23.8173325 10.6817373 21.7637673C10.3704788 21.5767631 9.98143569 21.5767631 9.67017717 21.7637673L6.24756848 23.8173325z"/>
      <path fill="#CCAE77" d="M10.1759572,16.7128414 C12.3455464,16.7128414 14.104346,14.9540419 14.104346,12.7844527 C14.104346,10.6148635 12.3455464,8.85606396 10.1759572,8.85606396 C8.00636803,8.85606396 6.24756848,10.6148635 6.24756848,12.7844527 C6.24756848,14.9540419 8.00636803,16.7128414 10.1759572,16.7128414 Z M10.1759572,10.8202583 C11.2607518,10.8202583 12.1401516,11.6996581 12.1401516,12.7844527 C12.1401516,13.8692473 11.2607518,14.7486471 10.1759572,14.7486471 C9.09116263,14.7486471 8.21176285,13.8692473 8.21176285,12.7844527 C8.21176285,11.6996581 9.09116263,10.8202583 10.1759572,10.8202583 Z"/>
    </g>
  </g>
</svg>
