<svg xmlns="http://www.w3.org/2000/svg" xmlns:xlink="http://www.w3.org/1999/xlink" width="40" height="50" viewBox="0 0 40 50">
  <defs>
    <rect id="icon-freeshipping-a" width="5" height="35" x="0" y="0"/>
  </defs>
  <g fill="none" fill-rule="evenodd" transform="translate(-20 -15)">
    <rect width="80" height="80"/>
    <g transform="translate(20.833 15)">
      <path fill="#CCAE77" d="M27.3907123,22.6658009 C24.9046045,22.6658009 23.4392759,20.0735931 22.0225108,17.5666273 C20.9730815,15.7103503 19.8954742,13.8088941 18.3345927,12.9984258 C21.2972058,11.8436836 25.0253444,10.2469894 26.1382133,9.13427784 C28.2252656,7.04754034 28.2252656,3.65202676 26.1382133,1.56528926 C24.051161,-0.521763085 20.6556474,-0.521763085 18.568595,1.56528926 C17.2702873,2.86328217 15.312318,7.72365211 14.1675718,10.7722944 C13.0228257,7.72373081 11.0648564,2.86328217 9.76662731,1.56528926 C7.67957497,-0.521763085 4.28406139,-0.521763085 2.19700905,1.56528926 C0.10995671,3.65202676 0.10995671,7.04754034 2.19700905,9.13427784 C3.309878,10.2469894 7.03793782,11.8436836 10.0006297,12.9984258 C8.43966942,13.8088941 7.36214089,15.7103503 6.31271153,17.5666273 C4.89594648,20.0736718 3.43061787,22.6658009 0.944510035,22.6658009 C0.423061787,22.6658009 7.63833441e-14,23.0885478 7.63833441e-14,23.6103109 C7.63833441e-14,24.132074 0.423061787,24.5548209 0.944510035,24.5548209 C4.53254624,24.5548209 6.35206612,21.3360094 7.95702479,18.4960252 C9.12475403,16.430854 10.2273121,14.4800472 11.6489571,14.4800472 L11.6489571,14.4824872 L16.686344,14.4824872 L16.686344,14.4800472 C18.1080677,14.4800472 19.210547,16.430854 20.3782763,18.4960252 C21.9832349,21.3360094 23.8027548,24.5548209 27.390791,24.5548209 C27.9122393,24.5548209 28.3353011,24.132074 28.3353011,23.6103109 C28.3353011,23.0885478 27.9121606,22.6658009 27.3907123,22.6658009 Z M19.9041322,2.90082645 C20.5792995,2.22565919 21.466037,1.8883904 22.3533255,1.8883904 C23.240063,1.8883904 24.1273514,2.22597403 24.8025187,2.90082645 C26.1528532,4.25116096 26.1528532,6.44824872 24.8025187,7.79866194 C23.8407713,8.76040929 19.3107438,10.6383314 15.7386856,11.9644235 C17.0644628,8.39236521 18.9423849,3.86257379 19.9041322,2.90082645 Z M3.53262495,2.90082645 C4.20779221,2.22565919 5.09452971,1.8883904 5.98181818,1.8883904 C6.86855569,1.8883904 7.75584416,2.22597403 8.43101141,2.90082645 C9.39275876,3.86257379 11.2706808,8.39236521 12.5964581,11.9643447 C9.02439984,10.6382527 4.49429359,8.76033058 3.53262495,7.79858323 C2.18229044,6.44832743 2.18229044,4.25123967 3.53262495,2.90082645 Z"/>
      <path fill="#101E5A" fill-rule="nonzero" d="M4.16527699,12.5 L17.0711736,12.5 L24.5649201,12.5 L37.4708167,12.5 L37.4708167,31.1666667 C35.3157758,31.1381511 33.271262,30.2072268 31.8338541,28.6 C31.6764257,28.4317081 31.4563727,28.336206 31.226028,28.336206 C30.9956833,28.336206 30.7756303,28.4317081 30.6182019,28.6 C28.6445992,30.799829 25.5914548,31.6825846 22.7497682,30.875 C22.4952821,30.788972 22.2149593,30.8311001 21.9969413,30.9881379 C21.7789233,31.1451757 21.6499914,31.3978329 21.6506853,31.6666667 C21.6506853,40 24.0070523,44.8 26.3634192,47.5 L4.16527699,47.5 L4.16527699,12.5 Z"/>
      <g transform="translate(11.25 12.5)">
        <mask id="icon-freeshipping-b" fill="#fff">
          <use xlink:href="#icon-freeshipping-a"/>
        </mask>
        <use fill="#2D4088" xlink:href="#icon-freeshipping-a"/>
        <path fill="#51629F" fill-rule="nonzero" d="M4.60076421e-13,45.0982094 L5.03738686,50.1355962 L5.03738686,51.6556277 L4.77670209,51.6556277 L4.60076421e-13,46.8790043 L4.60076421e-13,45.0982094 Z M6.33715302e-13,48.2465762 L3.40913026,51.6556277 L1.6283353,51.6556277 L6.33715302e-13,50.0273711 L6.33715302e-13,48.2465762 Z M4.60076421e-13,41.9498426 L5.03738686,46.9872294 L5.03738686,48.7680244 L4.60076421e-13,43.7306375 L4.60076421e-13,41.9498426 Z M4.60076421e-13,38.8014758 L5.03738686,43.8388627 L5.03738686,45.6196576 L4.60076421e-13,40.5822708 L4.60076421e-13,38.8014758 Z M4.60076421e-13,35.653109 L5.03738686,40.6904959 L5.03738686,42.4712908 L4.60076421e-13,37.433904 L4.60076421e-13,35.653109 Z M4.60076421e-13,32.5047422 L5.03738686,37.5421291 L5.03738686,39.322924 L4.60076421e-13,34.2855372 L4.60076421e-13,32.5047422 Z M4.60076421e-13,29.3563754 L5.03738686,34.3937623 L5.03738686,36.1745573 L4.60076421e-13,31.1371704 L4.60076421e-13,29.3563754 Z M4.60076421e-13,26.2080087 L5.03738686,31.2453955 L5.03738686,33.0261905 L4.60076421e-13,27.9888036 L4.60076421e-13,26.2080087 Z M1.08846265e-12,23.0465762 L3.40913026,26.4556277 L3.395,26.455 L5.03738686,28.0970287 L5.03738686,29.8778237 L4.60076421e-13,24.8404368 L1.08846265e-12,23.0465762 Z M9.14823772e-13,19.8982094 L5.03738686,24.9355962 L5.03738686,26.4556277 L4.77670209,26.4556277 L9.14823772e-13,21.6790043 L9.14823772e-13,19.8982094 Z M9.14823772e-13,16.7498426 L5.03738686,21.7872294 L5.03738686,23.5680244 L9.14823772e-13,18.5306375 L9.14823772e-13,16.7498426 Z M9.14823772e-13,13.6014758 L5.03738686,18.6388627 L5.03738686,20.4196576 L9.14823772e-13,15.3822708 L9.14823772e-13,13.6014758 Z M9.14823772e-13,10.453109 L5.03738686,15.4904959 L5.03738686,17.2712908 L9.14823772e-13,12.233904 L9.14823772e-13,10.453109 Z M9.14823772e-13,7.30474223 L5.03738686,12.3421291 L5.03738686,14.122924 L9.14823772e-13,9.08553719 L9.14823772e-13,7.30474223 Z M9.14823772e-13,4.15637544 L5.03738686,9.1937623 L5.03738686,10.9745573 L9.14823772e-13,5.93717041 L9.14823772e-13,4.15637544 Z M9.14823772e-13,1.00800866 L5.03738686,6.04539551 L5.03738686,7.82619048 L9.14823772e-13,2.78880362 L9.14823772e-13,1.00800866 Z M0.890436836,-1.25 L5.03738686,2.89702873 L5.03738686,4.67782369 L9.14823772e-13,-0.359563164 L9.14823772e-13,-1.25 L0.890436836,-1.25 Z" mask="url(#icon-freeshipping-b)"/>
      </g>
      <path fill="#CCAE77" d="M31.226028,49.5014124 C29.9021328,48.9935029 23.6573441,45.9044141 23.3326151,33.1150868 C26.1895036,33.5928742 29.106212,32.7160157 31.226028,30.7420671 C33.3503334,32.7199283 36.2738601,33.5969863 39.1360937,33.1150868 C38.7947119,45.9127405 32.5415968,48.9935029 31.226028,49.5014124 Z"/>
    </g>
  </g>
</svg>
