<svg xmlns="http://www.w3.org/2000/svg" width="48" height="50" viewBox="0 0 48 50">
  <g fill="none" fill-rule="evenodd" transform="translate(-16 -15)">
    <rect width="80" height="80"/>
    <g transform="translate(16.667 15)">
      <polygon fill="#1D2E70" points="3.464 30.441 12.926 33.548 12.926 49.892 3.464 46.692"/>
      <path fill="#97A1C6" d="M41.3135484,33.5483871 L41.3135484,49.8924731 L12.9264516,49.8924731 L12.9264516,33.5483871 L41.3135484,33.5483871 Z M38.7329032,41.2903226 L31.8511828,41.2903226 C31.3754839,41.2903226 30.9909677,41.6748387 30.9909677,42.1505376 L30.9909677,47.311828 C30.9909677,47.7875269 31.3754839,48.172043 31.8511828,48.172043 L38.7329032,48.172043 C39.2086022,48.172043 39.5931183,47.7875269 39.5931183,47.311828 L39.5931183,42.1505376 C39.5931183,41.6748387 39.2086022,41.2903226 38.7329032,41.2903226 Z"/>
      <polygon fill="#1D2E70" points="38.208 22.476 46.773 24.617 41.314 33.548 31.851 30.108"/>
      <polygon fill="#CCAE77" points="30.936 30.108 40.538 33.548 12.151 33.548 10 30.108"/>
      <path fill="#2D4088" d="M8.01548387,24.7888172 L10.4352688,29.6292473 L12.9264516,33.5483871 L3.46408602,30.4412903 L-1.61648472e-13,22.1178495 L8.01548387,24.7888172 Z"/>
      <path fill="#0B1E5E" fill-rule="nonzero" d="M23.2490323,7.26529947e-13 C24.3070968,7.26529947e-13 25.0460215,0.843870968 25.6387097,1.52172043 C25.9458065,1.87182796 26.2941935,2.27010753 26.5410753,2.37247312 C26.8163441,2.48688172 27.3643011,2.45333333 27.8477419,2.42322581 C28.7750538,2.36473118 29.8270968,2.30193548 30.547957,3.0227957 C31.2696774,3.74365591 31.2043011,4.79569892 31.1475269,5.72301075 C31.1182796,6.20731183 31.0847312,6.75612903 31.1982796,7.03053763 C31.3006452,7.27741935 31.6980645,7.62580645 32.0490323,7.93204301 C32.7277419,8.52473118 33.5716129,9.26451613 33.5716129,10.3225806 C33.5716129,11.3806452 32.7277419,12.1195699 32.0498925,12.7131183 C31.6997849,13.0202151 31.3015054,13.3686022 31.1991398,13.6154839 C31.0855914,13.8898925 31.1191398,14.4387097 31.1483871,14.9221505 C31.2060215,15.8494624 31.2705376,16.9006452 30.5488172,17.6223656 C29.827957,18.3432258 28.7733333,18.2787097 27.8486022,18.2219355 L27.7,18.2130108 L27.7,18.2130108 L27.5501075,18.2047312 L27.5501075,24.0860215 C27.5501075,24.3509677 27.427957,24.6012903 27.2189247,24.763871 C27.0666667,24.8834409 26.88,24.9462366 26.6898925,24.9462366 L26.5854839,24.9396774 L26.5854839,24.9396774 L26.4817204,24.9195699 L23.2490323,24.1126882 L20.0172043,24.9204301 C19.7608602,24.9849462 19.488172,24.9264516 19.28,24.763871 C19.1008295,24.6245161 18.9854905,24.4206978 18.956193,24.1984614 L18.9488172,24.0860215 L18.9488172,18.2047312 C18.848172,18.2098925 18.7475269,18.215914 18.6503226,18.2219355 C17.7212903,18.2787097 16.6701075,18.3423656 15.9501075,17.6223656 C15.2283871,16.9015054 15.2937634,15.8494624 15.3505376,14.9221505 C15.3797849,14.4378495 15.4133333,13.8890323 15.2997849,13.6146237 C15.1974194,13.3677419 14.8,13.0193548 14.4490323,12.7131183 C13.7703226,12.1204301 12.9264516,11.3806452 12.9264516,10.3225806 C12.9264516,9.26451613 13.7703226,8.5255914 14.4490323,7.93204301 C14.7991398,7.62494624 15.1974194,7.27655914 15.2989247,7.03053763 C15.4124731,6.75612903 15.3789247,6.20731183 15.3496774,5.72387097 C15.292043,4.79655914 15.2275269,3.74537634 15.9492473,3.02365591 C16.6701075,2.30193548 17.723871,2.36645161 18.6494624,2.42408602 C19.1337634,2.45419355 19.6825806,2.48774194 19.9569892,2.37333333 C20.203871,2.27096774 20.5522581,1.87354839 20.8584946,1.52258065 C21.4511828,0.843870968 22.1909677,7.26529947e-13 23.2490323,7.26529947e-13 Z M25.8296774,18.9075269 C25.7651613,18.9789247 25.7015054,19.052043 25.6395699,19.1225806 C25.0468817,19.8012903 24.3070968,20.6451613 23.2490323,20.6451613 C22.1909677,20.6451613 21.452043,19.8012903 20.8584946,19.1234409 C20.7965591,19.052043 20.732043,18.9797849 20.6683871,18.9083871 L20.6683871,18.9083871 L20.6683871,22.984086 L23.0408602,22.3913978 C23.1088172,22.3741935 23.1793548,22.3655914 23.2490323,22.3655914 C23.3187097,22.3655914 23.3892473,22.3741935 23.4572043,22.3913978 L23.4572043,22.3913978 L25.8296774,22.9832258 Z M23.2490323,5.16129032 C20.4025806,5.16129032 18.0877419,7.47612903 18.0877419,10.3225806 C18.0877419,13.1690323 20.4025806,15.483871 23.2490323,15.483871 C26.0954839,15.483871 28.4103226,13.1690323 28.4103226,10.3225806 C28.4103226,7.47612903 26.0954839,5.16129032 23.2490323,5.16129032 Z M23.2490323,6.88172043 C25.1466667,6.88172043 26.6898925,8.42494624 26.6898925,10.3225806 C26.6898925,12.2202151 25.1466667,13.7634409 23.2490323,13.7634409 C21.3513978,13.7634409 19.808172,12.2202151 19.808172,10.3225806 C19.808172,8.42494624 21.3513978,6.88172043 23.2490323,6.88172043 Z"/>
      <path fill="#CCAE77" d="M32.7113978 20.6451613L34.431828 20.6451613C34.431828 18.2735484 36.3612903 16.344086 38.7329032 16.344086L38.7329032 14.6236559C35.4133333 14.6236559 32.7113978 17.3255914 32.7113978 20.6451613zM7.5 15L7.5 16.7204301C9.8716129 16.7204301 11.8010753 18.6498925 11.8010753 21.0215054L13.5215054 21.0215054C13.5215054 17.7019355 10.8195699 15 7.5 15z"/>
      <rect width="1.72" height="1.72" x="4.324" y="14.624" fill="#CCAE77"/>
      <rect width="1.72" height="1.72" x="40.453" y="14.624" fill="#CCAE77"/>
    </g>
  </g>
</svg>
