<svg width="20" height="19" viewBox="0 0 20 19" fill="none" xmlns="http://www.w3.org/2000/svg">
<path fill-rule="evenodd" clip-rule="evenodd" d="M18.5 1.7998V3.2002C19.0996 3.5 19.5 4.09961 19.5996 4.7998V15.7998C19.5996 17.4004 18.2998 18.5996 16.7998 18.5996H2.7998C1.2002 18.5996 0 17.2998 0 15.7998V4.7998C0 4.09961 0.400391 3.5 1 3.2002V1.7998C1 0.799805 1.7998 0 2.7002 0H16.7002C17.1025 0 17.4717 0.128906 17.7705 0.348633C18.2139 0.675781 18.5 1.20215 18.5 1.7998ZM16.7998 1.5H2.7998C2.59961 1.5 2.5 1.59961 2.5 1.7998V3H17V1.7002C17 1.59961 16.9004 1.5 16.7998 1.5ZM16.7998 17C17.4004 17 18 16.5 18 15.7998V4.7998C18 4.7002 17.9004 4.59961 17.7998 4.59961H1.7998C1.7002 4.59961 1.59961 4.7002 1.59961 4.7998V15.7998C1.59961 16.4004 2.09961 17 2.7998 17H16.7998ZM13 7.7998C13 7.2998 13.2998 7 13.7998 7C14.2002 7 14.5 7.2998 14.5996 7.7998C14.5996 10.5 12.5 12.5996 9.7998 12.5996C7.09961 12.5996 5 10.4004 5 7.7998C5 7.2998 5.40039 7 5.7998 7C6.0166 7 6.20508 7.08887 6.33105 7.24902C6.4375 7.38477 6.5 7.57129 6.5 7.7998C6.5 9.5 8.09961 11 9.7998 11C11.5 11 13 9.59961 13 7.7998Z" fill="#333233"/>
</svg>
