<svg xmlns="http://www.w3.org/2000/svg" viewBox="0 0 15.01 13.02"><defs><style>.cls-1{fill:#323232;fill-rule:evenodd;}</style></defs><g id="Layer_2" data-name="Layer 2"><g id="Layer_1-2" data-name="Layer 1"><path class="cls-1" d="M14.86,6.66a.5.5,0,0,0-.71,0L14,6.81A6.49,6.49,0,0,0,2.21,2.75.5.5,0,0,0,3,3.33,5.49,5.49,0,0,1,13,6.8l-.14-.14a.5.5,0,0,0-.71,0,.51.51,0,0,0,0,.71l1,1a.51.51,0,0,0,.71,0l1-1A.51.51,0,0,0,14.86,6.66Z"/><path class="cls-1" d="M12,9.7A5.5,5.5,0,0,1,2,6.22l.15.15a.5.5,0,0,0,.7,0,.5.5,0,0,0,0-.71l-1-1a.51.51,0,0,0-.35-.15.51.51,0,0,0-.35.15l-1,1a.5.5,0,0,0,0,.71.5.5,0,0,0,.7,0L1,6.22a6.49,6.49,0,0,0,11.79,4.05A.5.5,0,0,0,12,9.7Z"/><path class="cls-1" d="M9.17,9.35a1.17,1.17,0,0,0,1.17-1.17V5.8a2.56,2.56,0,0,0-.2-1L10,4.39a1.17,1.17,0,0,0-1.07-.71H6.13a1.18,1.18,0,0,0-1.08.71l-.18.43a2.56,2.56,0,0,0-.2,1V8.18A1.17,1.17,0,0,0,5.84,9.35ZM9,4.78l.19.43a1.52,1.52,0,0,1,.1.47H8v-1h.88A.16.16,0,0,1,9,4.78ZM6,4.78a.18.18,0,0,1,.16-.1H7v1H5.68a1.53,1.53,0,0,1,.11-.47Zm-.3,3.4V6.7a0,0,0,0,1,0,0H9.32l0,0V8.18a.18.18,0,0,1-.17.17H5.84A.17.17,0,0,1,5.67,8.18Z"/></g></g></svg>