<svg xmlns="http://www.w3.org/2000/svg" viewBox="0 0 14.33 14.33"><defs><style>.cls-1{fill:#323232;}</style></defs><g id="Layer_2" data-name="Layer 2"><g id="Layer_1-2" data-name="Layer 1"><path class="cls-1" d="M14.2,7.41l-.44-1.1h0l-.63-1.58A1.16,1.16,0,0,0,12.05,4H9.67V3.83A1.17,1.17,0,0,0,8.5,2.67H8A3.26,3.26,0,0,0,4.77,0h0a3.24,3.24,0,0,0-2.3,1,3.37,3.37,0,0,0-.91,1.7H1.17A1.16,1.16,0,0,0,0,3.83v8.28a1.17,1.17,0,0,0,1.17,1.17h.92a1.47,1.47,0,0,0,.37.6,1.54,1.54,0,0,0,1.1.45h0a1.58,1.58,0,0,0,1.1-.45,1.48,1.48,0,0,0,.36-.6h4.4a1.72,1.72,0,0,0,.37.6,1.54,1.54,0,0,0,1.1.45h0a1.56,1.56,0,0,0,1.1-.45,1.52,1.52,0,0,0,.38-.66h.8a1.16,1.16,0,0,0,1.16-1.16v-4A1.79,1.79,0,0,0,14.2,7.41Zm-.93.37a.85.85,0,0,1,.06.31v.58H11.67V7H13ZM4.76,1h0A2.28,2.28,0,1,1,2.49,3.27a2.22,2.22,0,0,1,.68-1.59A2.24,2.24,0,0,1,4.76,1ZM1.17,3.67h.36A3.26,3.26,0,0,0,8,3.67h.5a.17.17,0,0,1,.17.16v5.5H1V3.83A.16.16,0,0,1,1.17,3.67ZM4,13.17a.54.54,0,0,1-.39.16.55.55,0,0,1-.4-.16.57.57,0,0,1,0-.79.57.57,0,0,1,.79,0,.59.59,0,0,1,.16.4A.57.57,0,0,1,4,13.17Zm7.33,0a.51.51,0,0,1-.39.16h0a.51.51,0,0,1-.39-.16.56.56,0,0,1-.17-.39h0a.58.58,0,0,1,.17-.4.57.57,0,0,1,.39-.16.59.59,0,0,1,.39.16A.56.56,0,0,1,11.28,13.17Zm1.89-.95h-.83a1.57,1.57,0,0,0-.35-.54,1.55,1.55,0,0,0-2.2,0,1.51,1.51,0,0,0-.37.6H5a1.48,1.48,0,0,0-.36-.6,1.55,1.55,0,0,0-2.2,0,1.4,1.4,0,0,0-.37.6H1.17A.17.17,0,0,1,1,12.11V10.33H9.17a.5.5,0,0,0,.5-.5V5h2.38a.15.15,0,0,1,.15.1l.36.9H11.17a.5.5,0,0,0-.5.5V9.17a.5.5,0,0,0,.5.5h2.16v2.39A.16.16,0,0,1,13.17,12.22Z"/><path class="cls-1" d="M3.18,3.63l.92.92a.53.53,0,0,0,.36.15.51.51,0,0,0,.35-.15L6.35,3a.5.5,0,0,0,0-.71.51.51,0,0,0-.71,0L4.46,3.49l-.57-.57a.5.5,0,0,0-.71.71Z"/></g></g></svg>