<svg height="682pt" viewBox="-64 -21 682 682.667" width="682pt" xmlns="http://www.w3.org/2000/svg"><path d="M253.242 175.313h42.29v42.523h-42.29zm0 0"/><path d="M430.45 0H118.331C51.598 0-2.5 54.395-2.5 121.488v313.828c0 67.09 54.094 121.485 120.832 121.485h103.879L273.85 640l51.657-83.2h104.941c66.73 0 120.836-54.394 120.836-121.484V121.484C551.285 54.394 497.18 0 430.45 0zM162.835 217.836h44.793v-42.524h-44.793v-45.859h44.793V84.422h45.613v45.031h42.29V84.422h45.613v45.031h44.777v45.86h-44.777v42.53h44.777v45.852h-44.777v45.032H295.53v-45.032h-42.293v45.032H207.62v-45.032h-44.785zm320.793 140.351s-60.215 114.024-203.18 114.024h-11.754c-142.96 0-203.175-114.024-203.175-114.024s-3.899-7.425-3.899-15.43c-.242-5.773 2.563-14.054 9.938-18.933 4.101-2.71 7.976-4.054 11.57-4.472 17.219-1.836 27.195 9.437 35.398 22.304 9.063 14.203 61.332 76.426 156.043 78.805 94.711-2.379 146.989-64.602 156.047-78.805 8.203-12.867 18.54-24.16 35.395-22.304 3.593.418 7.476 1.761 11.57 4.472 7.375 4.88 10.25 11.746 9.988 18.93-.578 10.562-3.941 15.434-3.941 15.434zm0 0"/></svg>