<svg xmlns="http://www.w3.org/2000/svg" viewBox="0 0 28.17 25.47"><defs><style>.cls-1{fill:#323232;}</style></defs><g id="Layer_2" data-name="Layer 2"><g id="bag-question"><g id="help"><path class="cls-1" d="M25.5,16.9V11.38A2.08,2.08,0,0,0,23.42,9.3H19a2.08,2.08,0,0,0-2.08,2.08v5.43h-2.2l-.83-4.69A3.42,3.42,0,0,0,10.51,9.3H7a3.4,3.4,0,0,0-3.37,2.86l-.79,4.71A3.42,3.42,0,0,0,0,20.23v1.82a3.42,3.42,0,0,0,3.42,3.42H24.75a3.43,3.43,0,0,0,3.42-3.42V20.23A3.42,3.42,0,0,0,25.5,16.9Zm-7.09-5.52A.58.58,0,0,1,19,10.8h4.43a.58.58,0,0,1,.58.58v5.43H18.41Zm-13.29,1A1.9,1.9,0,0,1,7,10.8h3.5a1.91,1.91,0,0,1,1.89,1.58l.79,4.43H4.39Zm21.55,9.65A1.92,1.92,0,0,1,24.75,24H3.42A1.92,1.92,0,0,1,1.5,22.05V20.23a1.92,1.92,0,0,1,1.92-1.92H24.75a1.92,1.92,0,0,1,1.92,1.92Z"/><path class="cls-1" d="M8.75,7a3.5,3.5,0,0,0,3.51-3.51,3.45,3.45,0,0,0-1-2.48,3.59,3.59,0,0,0-5,0,3.48,3.48,0,0,0-1,2.48A3.5,3.5,0,0,0,8.75,7ZM7.33,2.06A2,2,0,1,1,10.17,4.9a2,2,0,0,1-2.84,0,2,2,0,0,1-.59-1.42A2,2,0,0,1,7.33,2.06Z"/></g></g></g></svg>