<svg viewBox="0 0 24 24"><path d="M8.3 5.75c-2.646 0-4.55 2.525-4.55 5.01 0 1.209.475 2.407 1.254 3.554.779 1.146 1.833 2.2 2.916 3.1 1.08.9 2.169 1.631 2.997 2.138a20.233 20.233 0 001.083.62l.08-.043c.243-.13.589-.324 1.003-.577a25.819 25.819 0 002.997-2.137c1.083-.902 2.137-1.955 2.916-3.101.779-1.147 1.254-2.345 1.254-3.554 0-2.485-1.904-5.01-4.55-5.01-1.538 0-2.537.76-3.132 1.45a.75.75 0 01-1.136 0c-.595-.69-1.594-1.45-3.132-1.45zm-6.05 5.01c0-3.075 2.356-6.51 6.05-6.51 1.665 0 2.878.665 3.7 1.394a5.456 5.456 0 013.7-1.394c3.694 0 6.05 3.435 6.05 6.51 0 1.607-.63 3.096-1.513 4.396-.884 1.302-2.05 2.457-3.197 3.412a27.316 27.316 0 01-3.175 2.264c-.438.267-.809.476-1.08.62-.134.073-.248.13-.334.172a2.6 2.6 0 01-.199.084.77.77 0 01-.435.02.848.848 0 01-.145-.049 2.6 2.6 0 01-.123-.055 8.862 8.862 0 01-.335-.171c-.27-.145-.641-.354-1.079-.621a27.317 27.317 0 01-3.175-2.264c-1.147-.955-2.313-2.11-3.197-3.412-.883-1.3-1.513-2.79-1.513-4.396z"/></svg>
