<?xml version="1.0" encoding="UTF-8"?>
<svg width="20px" height="18px" viewBox="0 0 20 18" version="1.1" xmlns="http://www.w3.org/2000/svg" xmlns:xlink="http://www.w3.org/1999/xlink">
    <title>Shape</title>
    <g id="Page-1" stroke="none" stroke-width="1" fill="none" fill-rule="evenodd">
        <path d="M6.3,1.75 C3.65379,1.75 1.75,4.2754 1.75,6.76 C1.75,7.96848 2.22504,9.16658 3.00418,10.3138 C3.78263,11.4599 4.83662,12.5132 5.91982,13.4148 C7.00011,14.314 8.08869,15.0454 8.91731,15.5517 C9.33111,15.8046 9.67682,15.9993 9.92022,16.1291 C9.94839,16.1441 9.97499,16.1582 10,16.1713 C10.025,16.1582 10.0516,16.1441 10.0798,16.1291 C10.3232,15.9993 10.6689,15.8046 11.0827,15.5517 C11.9113,15.0454 12.9999,14.314 14.0802,13.4148 C15.1634,12.5132 16.2174,11.4599 16.9958,10.3138 C17.775,9.16658 18.25,7.96848 18.25,6.76 C18.25,4.2754 16.3462,1.75 13.7,1.75 C12.162,1.75 11.1633,2.50962 10.5679,3.19985 C10.4255,3.36503 10.2181,3.46 10,3.46 C9.78186,3.46 9.57453,3.36503 9.43206,3.19985 C8.83675,2.50962 7.83802,1.75 6.3,1.75 Z M0.25,6.76 C0.25,3.6846 2.60621,0.25 6.3,0.25 C7.96494,0.25 9.17771,0.915274 10,1.64403 C10.8223,0.915274 12.0351,0.25 13.7,0.25 C17.3938,0.25 19.75,3.6846 19.75,6.76 C19.75,8.36652 19.12,9.85592 18.2367,11.1565 C17.3526,12.4582 16.1866,13.6131 15.0398,14.5677 C13.8901,15.5247 12.7387,16.2977 11.8648,16.8317 C11.4274,17.099 11.0562,17.3084 10.7855,17.4527 C10.6508,17.5246 10.5373,17.5822 10.4508,17.6236 C10.4086,17.6438 10.3661,17.6633 10.3275,17.6793 C10.3092,17.6869 10.2824,17.6976 10.2523,17.7077 C10.2374,17.7127 10.213,17.7205 10.183,17.7278 L10.1825,17.7279 C10.1634,17.7326 10.092,17.75 10,17.75 C9.90799,17.75 9.83663,17.7326 9.81747,17.7279 L9.81702,17.7278 C9.78702,17.7205 9.76258,17.7127 9.74775,17.7077 C9.71756,17.6976 9.6908,17.6869 9.67247,17.6793 C9.63394,17.6633 9.59145,17.6438 9.54919,17.6236 C9.46268,17.5822 9.3492,17.5246 9.21447,17.4527 C8.94381,17.3084 8.57264,17.099 8.13519,16.8317 C7.26131,16.2977 6.10989,15.5247 4.96018,14.5677 C3.81338,13.6131 2.64737,12.4582 1.76332,11.1565 C0.879963,9.85592 0.25,8.36652 0.25,6.76 Z" id="Shape" fill="#323232"></path>
    </g>
</svg>