<svg xmlns="http://www.w3.org/2000/svg" viewBox="0 0 22.83 25.5"><defs><style>.cls-1{fill:#323232;}</style></defs><g id="Layer_2" data-name="Layer 2"><g id="bag-question"><g id="policy"><path class="cls-1" d="M16.75,5.33H10.08a.75.75,0,0,0,0,1.5h6.67a.75.75,0,0,0,0-1.5Z"/><path class="cls-1" d="M16.75,10.67H10.08a.75.75,0,0,0,0,1.5h6.67a.75.75,0,0,0,0-1.5Z"/><path class="cls-1" d="M16.75,16H10.08a.75.75,0,1,0,0,1.5h6.67a.75.75,0,0,0,0-1.5Z"/><path class="cls-1" d="M19.71,0H3.12A3.12,3.12,0,0,0,0,3.12V22.75a2.08,2.08,0,0,0,3,1.86l1-.51a.59.59,0,0,1,.52,0l2.37,1.18a2.08,2.08,0,0,0,1.86,0l2.37-1.18a.59.59,0,0,1,.52,0L14,25.28a2.1,2.1,0,0,0,1.86,0l2.36-1.18a.62.62,0,0,1,.53,0l1,.51a2.08,2.08,0,0,0,3-1.86V3.12A3.12,3.12,0,0,0,19.71,0Zm1.62,22.75a.61.61,0,0,1-.27.5.59.59,0,0,1-.57,0l-1-.51a2.12,2.12,0,0,0-1.87,0l-2.36,1.18a.59.59,0,0,1-.52,0l-2.36-1.18a2.09,2.09,0,0,0-1.87,0L8.12,23.94a.59.59,0,0,1-.52,0L5.24,22.76a2.09,2.09,0,0,0-.94-.22,2,2,0,0,0-.93.22l-1,.51a.57.57,0,0,1-.56,0,.59.59,0,0,1-.28-.5V3.12A1.63,1.63,0,0,1,3.12,1.5H19.71a1.62,1.62,0,0,1,1.62,1.62Z"/><path class="cls-1" d="M5.92,5.17A.9.9,0,0,0,5,6.08a.92.92,0,1,0,.92-.91Zm.41,1.32a.58.58,0,1,1-.41-1,.58.58,0,0,1,.58.57A.59.59,0,0,1,6.33,6.49Z"/><path class="cls-1" d="M5.92,10.5a.91.91,0,0,0-.92.92.92.92,0,1,0,.92-.92Zm.41,1.33a.59.59,0,0,1-1-.41.6.6,0,0,1,.59-.59.59.59,0,0,1,.58.58A.63.63,0,0,1,6.33,11.83Z"/><path class="cls-1" d="M5.92,15.83a.91.91,0,0,0-.66.28.91.91,0,1,0,.66-.28Zm.41,1.33a.58.58,0,1,1,.17-.42A.59.59,0,0,1,6.33,17.16Z"/></g></g></g></svg>