<svg xmlns="http://www.w3.org/2000/svg" viewBox="0 0 26.83 26.95"><defs><style>.cls-1{fill:#323232;}</style></defs><g id="Layer_2" data-name="Layer 2"><g id="bag-question"><path class="cls-1" d="M12.75,22.79H7.3A5.8,5.8,0,0,1,1.5,17V7.3A5.8,5.8,0,0,1,7.3,1.5H18.2A5.8,5.8,0,0,1,24,7.3v5.57a.75.75,0,0,0,1.5,0V7.3A7.3,7.3,0,0,0,18.2,0H7.3A7.3,7.3,0,0,0,0,7.3V17a7.31,7.31,0,0,0,7.3,7.3h5.45a.75.75,0,0,0,0-1.5Z"/><path class="cls-1" d="M16.67,7.54a3.92,3.92,0,0,1-7.84,0,.75.75,0,0,0-1.5,0,5.42,5.42,0,0,0,10.84,0,.75.75,0,1,0-1.5,0Z"/><path class="cls-1" d="M25.34,18.17l-6.67-2a2.08,2.08,0,0,0-2.58,2.59l2,6.66A2.09,2.09,0,0,0,19.93,27h.12A2.1,2.1,0,0,0,22,25.68l1-2.32a.61.61,0,0,1,.31-.3l2.31-1a2.09,2.09,0,0,0-.22-3.92ZM25,20.71l-2.31,1a2,2,0,0,0-1.11,1.1l-1,2.32a.57.57,0,0,1-.57.35.58.58,0,0,1-.52-.41l-2-6.67a.6.6,0,0,1,.14-.58.58.58,0,0,1,.41-.17.47.47,0,0,1,.17,0l6.67,2a.58.58,0,0,1,.41.53A.59.59,0,0,1,25,20.71Z"/></g></g></svg>