<svg width="32" height="32" viewBox="0 0 32 32" fill="none" xmlns="http://www.w3.org/2000/svg">
<path d="M16 26.6668H10.5455C8.80949 26.6668 7.14463 25.9772 5.91712 24.7497C4.6896 23.5222 4 21.8573 4 20.1213V10.4244C4 6.80941 6.9305 3.87891 10.5455 3.87891H21.4545C25.0695 3.87891 28 6.80941 28 10.4244V16.0001" stroke="#323232" stroke-width="1.5" stroke-linecap="round" stroke-linejoin="round"/>
<path d="M11.333 10.667C11.333 13.2443 13.4223 15.3337 15.9997 15.3337C18.577 15.3337 20.6663 13.2443 20.6663 10.667" stroke="#323232" stroke-width="1.5" stroke-linecap="round" stroke-linejoin="round"/>
<path fill-rule="evenodd" clip-rule="evenodd" d="M28.5168 24.5254L26.2051 25.497C25.8874 25.6305 25.6347 25.8831 25.5011 26.2007L24.5265 28.5172C24.3079 29.0369 23.7859 29.3628 23.223 29.3313C22.66 29.2998 22.1778 28.9176 22.0185 28.3767L20.0562 21.7118C19.9185 21.2437 20.0474 20.7377 20.3925 20.3926C20.7375 20.0475 21.2435 19.9185 21.7116 20.0562L28.3765 22.0172C28.9175 22.1765 29.2998 22.6588 29.3313 23.2219C29.3628 23.7849 29.0366 24.3069 28.5168 24.5254Z" stroke="#323232" stroke-width="1.5" stroke-linecap="round" stroke-linejoin="round"/>
</svg>
