<svg height="682pt" viewBox="-21 -56 682.667 682" width="682pt" xmlns="http://www.w3.org/2000/svg"><path d="M429.93 388.258c-27.567 0-50.043-22.473-50.043-50.043 0-27.567 22.476-50.043 50.043-50.043 27.57 0 50.047 22.476 50.047 50.043 0 27.57-22.477 50.043-50.047 50.043m8.84 82.129c-34.196 34.097-99.61 36.789-118.817 36.789-19.21 0-84.719-2.692-118.82-36.79a12.939 12.939 0 010-18.347 12.937 12.937 0 0118.351 0c21.512 21.52 67.524 29.203 100.47 29.203 32.85 0 78.952-7.683 100.472-29.203a12.927 12.927 0 0118.344 0c4.996 5.094 4.996 13.258 0 18.348M159.734 338.219c0-27.567 22.477-50.043 50.047-50.043 27.567 0 50.043 22.476 50.043 50.043s-22.476 50.047-50.043 50.047c-27.57-.008-50.047-22.48-50.047-50.047M640 288.176c0-38.711-31.313-70.024-70.023-70.024-18.922 0-36.024 7.489-48.602 19.692-47.836-34.578-113.82-56.864-187.305-59.457l31.89-150.133 104.22 22.191c1.25 26.512 22.953 47.645 49.757 47.645 27.66 0 50.043-22.383 50.043-50.047C569.98 20.383 547.598-2 519.937-2c-19.695 0-36.503 11.43-44.667 27.95L358.852 1.167c-3.266-.672-6.625-.09-9.414 1.73-2.782 1.825-4.708 4.61-5.375 7.875 0 0-34.965 166.559-34.965 167.52-74.825 1.918-142.063 24.3-190.664 59.36-12.582-12.102-29.586-19.5-48.41-19.5C31.312 218.152 0 249.558 0 288.175c0 28.43 17 52.926 41.398 63.87a140.986 140.986 0 00-1.632 21.231c0 107.77 125.445 195.086 280.187 195.086 154.738 0 280.184-87.316 280.184-195.086 0-7.109-.574-14.12-1.63-21.035C622.81 341.293 640 316.801 640 288.176"/></svg>