<svg width="16" height="16" viewBox="0 0 16 16" fill="none" xmlns="http://www.w3.org/2000/svg">
<path fill-rule="evenodd" clip-rule="evenodd" d="M3.36853 3.36828C5.52656 1.21025 9.02543 1.21025 11.1835 3.36828C13.3214 5.50621 13.3413 8.9601 11.2432 11.1226C11.2212 11.1401 11.2 11.159 11.1796 11.1794C11.1593 11.1997 11.1403 11.221 11.1228 11.243C8.96035 13.3411 5.50646 13.3212 3.36853 11.1832C1.21049 9.02519 1.21049 5.52632 3.36853 3.36828ZM11.6858 12.7462C8.92665 14.976 4.87254 14.8086 2.30787 12.2439C-0.435956 9.50006 -0.435956 5.05145 2.30787 2.30762C5.05169 -0.4362 9.5003 -0.4362 12.2441 2.30762C14.8088 4.8723 14.9763 8.92641 12.7465 11.6856L15.5303 14.4694C15.8232 14.7623 15.8232 15.2372 15.5303 15.53C15.2374 15.8229 14.7625 15.8229 14.4696 15.53L11.6858 12.7462Z" fill="#323232"/>
</svg>
