<svg width="24" height="24" viewBox="0 0 24 24" fill="none" xmlns="http://www.w3.org/2000/svg">
<path fill-rule="evenodd" clip-rule="evenodd" d="M2.99651 4.74707C2.85821 4.74707 2.74609 4.85919 2.74609 4.99749V13.251H14.2515V4.99749C14.2515 4.85919 14.1394 4.74707 14.0011 4.74707H2.99651ZM14.9816 14.751C14.9882 14.7512 14.9948 14.7512 15.0015 14.7512C15.4157 14.7512 15.7515 14.4155 15.7515 14.0012V14.001V6.74805H18.6489C19.1603 6.74805 19.6202 7.0594 19.8102 7.53423L20.0962 8.24902H18.0029C17.5887 8.24902 17.2529 8.58481 17.2529 8.99902V12.5005C17.2529 13.191 17.8127 13.7507 18.5031 13.7507H21.2549V17.5028C21.2549 17.6411 21.1428 17.7533 21.0045 17.7533H19.6192C19.5095 17.4444 19.3315 17.1574 19.0901 16.916L15.9073 16.916L19.0892 16.9151C18.6672 16.4936 18.0952 16.2568 17.4987 16.2568C16.9018 16.2568 16.3294 16.4939 15.9073 16.916C15.666 17.1573 15.4881 17.4442 15.3784 17.7529H8.61422C8.50443 17.4442 8.32652 17.1574 8.0852 16.9161L8.08127 16.9122C7.65968 16.4926 7.08903 16.2569 6.49405 16.2568C5.89718 16.2568 5.32473 16.4939 4.90267 16.9159L4.9026 16.9158L4.89758 16.921C4.65872 17.1613 4.48246 17.4465 4.37342 17.7531H2.99651C2.85821 17.7531 2.74609 17.641 2.74609 17.5027V14.751H14.9816ZM1.24609 14.001V4.99749C1.24609 4.03076 2.02978 3.24707 2.99651 3.24707H14.0011C14.9678 3.24707 15.7515 4.03076 15.7515 4.99749V5.24805H18.6489C19.7736 5.24805 20.7851 5.93277 21.2029 6.97703L21.8916 8.69853C21.898 8.71308 21.9039 8.72786 21.9094 8.74287L22.5581 10.3644C22.6881 10.6892 22.7549 11.0358 22.7549 11.3857V17.5028C22.7549 18.4696 21.9712 19.2533 21.0045 19.2533H19.6222C19.6086 19.292 19.5939 19.3304 19.5781 19.3687C19.2297 20.2097 18.4091 20.7581 17.4988 20.7581C16.5885 20.7582 15.7678 20.2099 15.4194 19.3689C15.4035 19.3305 15.3888 19.2918 15.3751 19.2529H8.6175C8.60386 19.2918 8.58909 19.3304 8.57321 19.3688C8.2249 20.2098 7.40426 20.7582 6.49397 20.7582C5.58368 20.7583 4.76299 20.21 4.41459 19.369C4.3987 19.3306 4.38392 19.292 4.37027 19.2531H2.99651C2.02978 19.2531 1.24609 18.4694 1.24609 17.5027V14.001ZM5.74734 18.5031C5.74734 18.5227 5.74659 18.5421 5.74512 18.5613C5.75077 18.6403 5.769 18.7191 5.80038 18.7949C5.91658 19.0754 6.19029 19.2582 6.49389 19.2582C6.79749 19.2582 7.07119 19.0753 7.18736 18.7948C7.30352 18.5143 7.23929 18.1915 7.0246 17.9768L7.02447 17.9767L7.02446 17.9767C6.88376 17.8359 6.69292 17.7569 6.49391 17.7568C6.29661 17.7568 6.10731 17.8345 5.96694 17.973L5.96313 17.9769L5.96306 17.9769C5.83376 18.1062 5.75905 18.2747 5.74546 18.4496C5.74671 18.4673 5.74734 18.4851 5.74734 18.5031ZM16.8052 18.7948C16.7738 18.719 16.7556 18.6401 16.75 18.5611C16.7515 18.5419 16.7522 18.5225 16.7522 18.5029C16.7522 18.485 16.7516 18.4672 16.7503 18.4496C16.7639 18.2746 16.8387 18.106 16.968 17.9767L17.4987 19.2581C17.1951 19.2581 16.9214 19.0753 16.8052 18.7948ZM17.4987 17.7568C17.6978 17.7568 17.8887 17.8359 18.0294 17.9767C18.2441 18.1914 18.3084 18.5142 18.1922 18.7947C18.076 19.0752 17.8023 19.2581 17.4987 19.2581L17.4987 17.7568ZM17.4987 17.7568C17.2996 17.7568 17.1087 17.8359 16.968 17.9767L17.4987 17.7568ZM20.6963 9.74902H18.7529V12.2507H21.2549V11.3857C21.2549 11.2267 21.2245 11.0692 21.1655 10.9216L20.6963 9.74902Z" fill="black"/>
</svg>
