<svg width="20" height="20" viewBox="0 0 20 20" fill="none" xmlns="http://www.w3.org/2000/svg">
<path fill-rule="evenodd" clip-rule="evenodd" d="M7.71284 2.69697C8.9758 1.43402 11.0235 1.43402 12.2864 2.69697C13.5494 3.95993 13.5494 6.00759 12.2864 7.27054C11.0235 8.5335 8.9758 8.5335 7.71284 7.27054C6.44989 6.00759 6.44989 3.95993 7.71284 2.69697ZM6.65218 1.63631C8.50093 -0.21243 11.4983 -0.21243 13.3471 1.63631C15.1958 3.48506 15.1958 6.48246 13.3471 8.3312C11.4983 10.1799 8.50093 10.1799 6.65218 8.3312C4.80344 6.48246 4.80344 3.48506 6.65218 1.63631ZM1.75 16.9996C1.75 15.9008 2.55822 14.8519 4.13694 14.0349C5.69104 13.2307 7.81804 12.7576 10 12.7576C12.1819 12.7576 14.3089 13.2309 15.863 14.0353C17.4418 14.8524 18.25 15.9013 18.25 16.9996V17.9996C18.25 18.1374 18.1378 18.2496 18 18.2496H2C1.86221 18.2496 1.75 18.1374 1.75 17.9996V16.9996ZM3.44756 12.7027C5.25496 11.7674 7.62796 11.2576 10 11.2576C12.3721 11.2576 14.7451 11.7677 16.5525 12.7031C18.3352 13.6257 19.75 15.0728 19.75 16.9996V17.9996C19.75 18.9658 18.9662 19.7496 18 19.7496H2C1.03379 19.7496 0.25 18.9658 0.25 17.9996V16.9996C0.25 15.0724 1.66478 13.6253 3.44756 12.7027Z" fill="#323232"/>
</svg>
