<svg xmlns="http://www.w3.org/2000/svg" width="123" height="33" viewBox="0 0 123 33">
  <g fill="#FFF">
    <path stroke="#FFF" stroke-width=".5" d="M0.253318078,31.7776842 L0.253318078,27.5907368 C0.253318078,27.5503158 0.276961098,27.5301053 0.317491991,27.5267368 L1.73607323,27.5267368 C2.30868543,27.5016975 2.8669568,27.7095702 3.28300229,28.1027368 C4.06150465,29.0141198 4.06150465,30.3543013 3.28300229,31.2656842 C2.86640566,31.6576246 2.30820034,31.8642572 1.73607323,31.8383158 L0.317491991,31.8383158 C0.300525425,31.8403581 0.283528407,31.8347571 0.271122089,31.8230356 C0.258715772,31.8113141 0.252189661,31.7946904 0.253318078,31.7776842 M0.810617849,31.4071579 L1.73607323,31.4071579 C2.16038442,31.4235874 2.57253025,31.2638106 2.87431579,30.9658947 C3.45254034,30.2087326 3.45254034,29.1596884 2.87431579,28.4025263 C2.57332934,28.1030299 2.16095356,27.9419435 1.73607323,27.9578947 L0.810617849,27.9578947 L0.810617849,31.4071579 Z M7.5252357,31.7776842 L7.5252357,27.5907368 C7.5252357,27.5469474 7.54550114,27.5267368 7.58603204,27.5267368 L8.02173913,27.5267368 C8.05889245,27.5267368 8.07915789,27.5469474 8.07915789,27.5907368 L8.07915789,31.7776842 C8.07915789,31.8181053 8.05889245,31.8383158 8.02173913,31.8383158 L7.58603204,31.8383158 C7.56931637,31.8405703 7.55250382,31.8349116 7.54057646,31.8230166 C7.52864909,31.8111216 7.52297504,31.7943546 7.5252357,31.7776842 M11.6222334,31.7776842 L13.2569794,27.712 C13.3001844,27.5976194 13.4114324,27.5232041 13.5339405,27.5267368 L13.7230847,27.5267368 C13.8465175,27.5199274 13.9595298,27.5955229 14.0000458,27.712 L15.6381693,31.7776842 C15.6389715,31.7866489 15.6389715,31.7956669 15.6381693,31.8046316 C15.6381693,31.8248421 15.6179039,31.8383158 15.577373,31.8383158 L15.1416659,31.8383158 C15.1010123,31.8381292 15.0641418,31.814491 15.0470938,31.7776842 L14.6181419,30.7267368 L12.6388833,30.7267368 L12.2099314,31.7776842 C12.194334,31.8157218 12.1565333,31.8399564 12.1153593,31.8383158 L11.672897,31.8383158 C11.6323661,31.8383158 11.6154783,31.8383158 11.6154783,31.8046316 C11.6154783,31.7709474 11.6154783,31.8046316 11.6154783,31.7776842 M12.7976293,30.3157895 L14.4627735,30.3157895 L13.6285126,28.2543158 L12.7976293,30.3157895 Z M19.1778673,31.7776842 L19.1778673,27.5907368 C19.1758194,27.5738163 19.1814357,27.5568653 19.193189,27.5444926 C19.2049424,27.5321199 19.2216112,27.5256115 19.2386636,27.5267368 L19.6709931,27.5267368 C19.791802,27.528832 19.9001728,27.6013227 19.9479542,27.712 L21.5421693,30.7435789 L23.1296293,27.712 C23.1787426,27.602434 23.2863072,27.5304825 23.4065904,27.5267368 L23.8389199,27.5267368 C23.8794508,27.5267368 23.8997162,27.5469474 23.9030938,27.5907368 L23.9030938,31.7776842 C23.9042222,31.7946904 23.8976961,31.8113141 23.8852898,31.8230356 C23.8728835,31.8347571 23.8558865,31.8403581 23.8389199,31.8383158 L23.4065904,31.8383158 C23.3896238,31.8403581 23.3726268,31.8347571 23.3602205,31.8230356 C23.3478142,31.8113141 23.3412881,31.7946904 23.3424165,31.7776842 L23.3424165,28.4530526 L21.9238352,31.1275789 C21.8757147,31.2384601 21.7679448,31.3118596 21.6468741,31.3162105 L21.4307094,31.3162105 C21.308402,31.3131462 21.1990074,31.2395378 21.1503707,31.1275789 L19.7317895,28.4530526 L19.7317895,31.7776842 C19.7340501,31.7943546 19.7283761,31.8111216 19.7164487,31.8230166 C19.7045213,31.8349116 19.6877088,31.8405703 19.6709931,31.8383158 L19.2521739,31.8383158 C19.2354582,31.8405703 19.2186457,31.8349116 19.2067183,31.8230166 C19.194791,31.8111216 19.1891169,31.7943546 19.1913776,31.7776842 M28.1824805,31.3263158 C27.4293426,30.3553929 27.4293426,28.9995545 28.1824805,28.0286316 C28.5633846,27.6428978 29.0835417,27.4256952 29.6263936,27.4256952 C30.1692455,27.4256952 30.6894026,27.6428978 31.0703066,28.0286316 C31.8244395,28.9987871 31.8258282,30.3546258 31.0736842,31.3263158 C30.6927802,31.7120495 30.172623,31.9292522 29.6297712,31.9292522 C29.0869193,31.9292522 28.5667621,31.7120495 28.1858581,31.3263158 M30.6649977,28.3216842 C30.3993555,28.0304271 30.0228711,27.8643935 29.6280824,27.8643935 C29.2332937,27.8643935 28.8568093,28.0304271 28.591167,28.3216842 C28.2914632,28.704533 28.1446559,29.184564 28.179103,29.6690526 C28.1446559,30.1535413 28.2914632,30.6335722 28.591167,31.0164211 C28.8568093,31.3076781 29.2332937,31.4737117 29.6280824,31.4737117 C30.0228711,31.4737117 30.3993555,31.3076781 30.6649977,31.0164211 C31.2186417,30.1956564 31.2186417,29.1222383 30.6649977,28.3014737 M35.3530709,31.7776842 L35.3530709,27.5907368 C35.3530709,27.5469474 35.3733364,27.5267368 35.4138673,27.5267368 L35.8461968,27.5267368 C35.9749793,27.5305813 36.0925712,27.6006903 36.1569336,27.712 L38.4401739,31.0804211 L38.4401739,27.5907368 C38.4401739,27.5469474 38.4604394,27.5267368 38.5009703,27.5267368 L38.9332998,27.5267368 C38.9509092,27.5245142 38.9685595,27.5305386 38.9811105,27.5430556 C38.9936616,27.5555727 38.9997024,27.5731751 38.9974737,27.5907368 L38.9974737,31.7776842 C38.9986021,31.7946904 38.992076,31.8113141 38.9796697,31.8230356 C38.9672634,31.8347571 38.9502663,31.8403581 38.9332998,31.8383158 L38.5043478,31.8383158 C38.3772767,31.8346722 38.261081,31.7659078 38.1969886,31.6564211 L35.9103707,28.2677895 L35.9103707,31.7776842 C35.9103707,31.8181053 35.9103707,31.8383158 35.8495744,31.8383158 L35.4172449,31.8383158 C35.4005292,31.8405703 35.3837166,31.8349116 35.3717893,31.8230166 C35.3598619,31.8111216 35.3541879,31.7943546 35.3564485,31.7776842 M42.9661236,31.7776842 L42.9661236,27.5907368 C42.9661236,27.5503158 42.9830114,27.5301053 43.0269199,27.5267368 L44.4455011,27.5267368 C45.0182994,27.5005197 45.5770182,27.708559 45.9924302,28.1027368 C46.6550778,28.7151859 46.8659116,29.6740235 46.5210491,30.5068095 C46.1761866,31.3395956 45.3483775,31.870652 44.4455011,31.8383158 L43.0269199,31.8383158 C42.9830114,31.8383158 42.9661236,31.8181053 42.9661236,31.7776842 M43.5166682,31.4071579 L44.4455011,31.4071579 C44.8742344,31.4261437 45.2915391,31.2662646 45.597254,30.9658947 C46.1731742,30.2079587 46.1731742,29.1604623 45.597254,28.4025263 C45.2932681,28.0991494 44.8750778,27.937708 44.4455011,27.9578947 L43.5166682,27.9578947 L43.5166682,31.4071579 Z M49.9306819,30.7233684 C49.9306819,30.6863158 49.9509474,30.6661053 49.9948558,30.6661053 L50.3832769,30.6661053 C50.4186737,30.6679408 50.4487702,30.6924984 50.4575835,30.7267368 C50.6298398,31.2421053 51.0723021,31.4981053 51.7782151,31.4981053 C52.0743304,31.5173601 52.3694816,31.4481699 52.6259863,31.2993684 C52.8049429,31.2011721 52.9171709,31.0146324 52.9198352,30.8109474 C52.9271779,30.6363391 52.86106,30.4666078 52.7374462,30.3427368 C52.5703003,30.2004991 52.3708904,30.1010643 52.1565034,30.0530526 L51.0723021,29.7431579 C50.3765217,29.5444211 50.025254,29.1671579 50.025254,28.6046316 C50.0221012,28.2685784 50.1866739,27.9529501 50.4643387,27.7625263 C50.8121384,27.5243811 51.2284403,27.406098 51.6498673,27.4256842 C52.0739543,27.4103468 52.4921692,27.5281664 52.8455286,27.7625263 C53.1451645,27.9630383 53.3519201,28.2747571 53.4197162,28.6282105 C53.4197162,28.6787368 53.4197162,28.7056842 53.3589199,28.7056842 L52.9704989,28.7056842 C52.9333455,28.7056842 52.9097025,28.6821053 52.8961922,28.6416842 C52.7205584,28.1296842 52.3084943,27.8736842 51.6633776,27.8736842 C51.3839444,27.8565454 51.1059048,27.924692 50.86627,28.0690526 C50.690345,28.1726929 50.5814826,28.3604506 50.5791762,28.5642105 C50.5692804,28.7389052 50.6372709,28.9090371 50.7649428,29.0290526 C50.9328474,29.1633749 51.1292008,29.2578298 51.3391304,29.3052632 L52.4199542,29.6151579 C53.1157346,29.8105263 53.4636247,30.1900351 53.4636247,30.7536842 C53.4720892,31.0938456 53.308328,31.4154162 53.0279176,31.6092632 C52.65928,31.8487721 52.2244559,31.9666106 51.7849703,31.9461053 C51.3428571,31.9672461 50.9043987,31.8570493 50.525135,31.6294737 C50.3660705,31.5213705 50.2267084,31.3869429 50.1130709,31.232 C50.0028805,31.0899563 49.9413163,30.9163906 49.9374371,30.7368421 M62.3804211,30.7604211 C62.3849553,30.2700689 62.6480182,29.8183151 63.0728238,29.5713684 C63.1445268,29.515964 63.2228005,29.4695796 63.3058764,29.4332632 C63.2902741,29.4172499 63.2733242,29.4025997 63.2552128,29.3894737 C63.2111599,29.3527247 63.170469,29.312144 63.1336201,29.2682105 C63.0779995,29.2070782 63.0271854,29.141762 62.9816293,29.0728421 C62.8781409,28.9153789 62.8208195,28.7322143 62.8161281,28.544 C62.8017969,28.2288003 62.9415369,27.926223 63.1910389,27.7322105 C63.4949376,27.5177722 63.8631243,27.4132006 64.2347094,27.4357895 C64.6258689,27.4234724 65.0099119,27.542049 65.3256659,27.7726316 C65.6024355,27.9852168 65.7930986,28.2901685 65.8627002,28.6315789 C65.8627002,28.6821053 65.8627002,28.7090526 65.7985263,28.7090526 L65.4101053,28.7090526 C65.3732932,28.7061308 65.3422469,28.6805535 65.3324211,28.6450526 C65.2648581,28.4200204 65.1247738,28.2234866 64.9338673,28.0858947 C64.7472227,27.9458777 64.5188796,27.8723418 64.285373,27.8770526 C63.6672769,27.8770526 63.3632952,28.0825263 63.3632952,28.4934737 C63.3716931,28.6383091 63.422155,28.7775809 63.5085309,28.8943158 C63.592099,29.0263294 63.6932205,29.1464399 63.809135,29.2513684 L65.2142059,30.5987368 L65.8897208,29.8644211 C65.9167414,29.8262456 65.9471396,29.8262456 65.9809153,29.8644211 L66.2342334,30.0833684 C66.2470681,30.0935955 66.2545411,30.1090898 66.2545411,30.1254737 C66.2545411,30.1418576 66.2470681,30.1573518 66.2342334,30.1675789 L65.5587185,30.9389474 L66.42,31.7709474 C66.4249269,31.7839731 66.4249269,31.7983427 66.42,31.8113684 C66.416661,31.8249512 66.4034581,31.8337293 66.3896018,31.8315789 L65.8289245,31.8315789 C65.7747961,31.8293571 65.7232629,31.8078435 65.6836888,31.7709474 L65.2209611,31.3263158 C64.8417261,31.7393526 64.2993259,31.9648429 63.7382059,31.9427368 C63.3836868,31.9520811 63.0378904,31.8323383 62.7654645,31.6058947 C62.5119244,31.3979169 62.3696529,31.0842745 62.3804211,30.7570526 M62.9377208,30.7570526 C62.927677,30.9639424 63.0136229,31.1639393 63.1707735,31.2993684 C63.3496951,31.4379375 63.5728176,31.5073247 63.7990023,31.4947368 C64.2184714,31.486584 64.6133689,31.2958239 64.8798261,30.9726316 L63.6436339,29.7734737 C63.5612779,29.8091565 63.4840432,29.8555983 63.4139588,29.9115789 C63.3299998,29.9713678 63.2529681,30.0402825 63.1842838,30.1170526 C63.1122859,30.1992421 63.0541137,30.2925205 63.0120275,30.3932632 C62.9625327,30.5081698 62.9372408,30.6319935 62.9377208,30.7570526 M75.1037437,27.5907368 C75.1029415,27.5817722 75.1029415,27.5727541 75.1037437,27.5637895 C75.1037437,27.5402105 75.1273867,27.5267368 75.16454,27.5267368 L75.5833593,27.5267368 C75.625568,27.5221723 75.6646117,27.549573 75.6745538,27.5907368 L76.7688879,31.0972632 L77.7247414,27.7288421 C77.7405736,27.6774641 77.771093,27.6318092 77.8125584,27.5974737 C77.8576715,27.5618135 77.9137446,27.5427765 77.9713043,27.5435789 L78.1874691,27.5435789 C78.2440577,27.5424178 78.2991862,27.561541 78.3428375,27.5974737 C78.3872419,27.6297333 78.4193853,27.6760369 78.434032,27.7288421 L79.386508,31.0972632 L80.4774645,27.5907368 C80.4774645,27.5503158 80.521373,27.5301053 80.5720366,27.5267368 L80.9874783,27.5267368 C81.0381419,27.5267368 81.0550297,27.5469474 81.0415195,27.5907368 L79.7580412,31.6631579 C79.7190175,31.7819182 79.602384,31.8575946 79.4777025,31.8450526 L79.2953135,31.8450526 C79.227663,31.8472558 79.1611751,31.8271267 79.1061693,31.7877895 C79.0620338,31.75822 79.0297478,31.714096 79.0149748,31.6631579 L78.0726316,28.2947368 L77.1336659,31.6631579 C77.1172249,31.7150918 77.0839613,31.760113 77.0390938,31.7911579 C76.9843016,31.8279589 76.9193636,31.8467988 76.8533272,31.8450526 L76.6709382,31.8450526 C76.5456807,31.8566847 76.4286132,31.781631 76.387222,31.6631579 L75.1037437,27.5907368 Z M83.9631213,31.7776842 L85.6012449,27.712 C85.6444499,27.5976194 85.7556978,27.5232041 85.8782059,27.5267368 L86.0673501,27.5267368 C86.190783,27.5199274 86.3037953,27.5955229 86.3443112,27.712 L87.9790572,31.7776842 C87.9790572,31.7776842 87.9790572,31.7978947 87.9790572,31.8046316 C87.9790572,31.8113684 87.9554142,31.8383987 87.9182609,31.8383987 L87.4791762,31.8383987 C87.4392237,31.8385452 87.4031357,31.8145518 87.3879817,31.7776842 L86.9590297,30.7267368 L84.9763936,30.7267368 L84.5440641,31.7776842 C84.5297044,31.8151922 84.4931093,31.8395228 84.4528696,31.8383987 L84.0104073,31.8383987 C83.973254,31.8383987 83.9529886,31.8383987 83.9529886,31.8046316 C83.9529886,31.7709474 83.9529886,31.8046316 83.9529886,31.7776842 M85.1418947,30.3157895 L86.8036613,30.3157895 L85.9694005,28.2543158 L85.1418947,30.3157895 Z M90.7891991,27.8972632 L90.7891991,27.5907368 C90.7859738,27.574186 90.7907009,27.5570835 90.801974,27.5445183 C90.8132471,27.5319532 90.8297669,27.5253734 90.8466178,27.5267368 L94.3694279,27.5267368 C94.4099588,27.5267368 94.4302243,27.5469474 94.4302243,27.5907368 L94.4302243,27.8972632 C94.4324849,27.9139335 94.4268109,27.9307005 94.4148835,27.9425955 C94.4029561,27.9544906 94.3861436,27.9601493 94.3694279,27.9578947 L92.8562746,27.9578947 L92.8562746,31.7776842 C92.8585353,31.7943546 92.8528612,31.8111216 92.8409338,31.8230166 C92.8290065,31.8349116 92.8121939,31.8405703 92.7954783,31.8383158 L92.3631487,31.8383158 C92.3192403,31.8383158 92.3023524,31.8181053 92.3023524,31.7776842 L92.3023524,27.9578947 L90.8567506,27.9578947 C90.8162197,27.9578947 90.7993318,27.9376842 90.7993318,27.8972632 M98.1016476,31.3263158 C97.3521271,30.3516586 97.3521271,28.9965519 98.1016476,28.0218947 C98.4738846,27.6253309 98.9994763,27.4080531 99.5438719,27.4256842 C99.9797898,27.4086495 100.410346,27.5262905 100.776686,27.7625263 C101.091091,27.9774777 101.30443,28.3106006 101.367762,28.6854737 C101.367762,28.736 101.367762,28.7595789 101.306966,28.7595789 L100.915167,28.7595789 C100.879063,28.7615573 100.847799,28.7348323 100.844238,28.6989474 C100.671982,28.1465263 100.236275,27.8669474 99.5438719,27.8669474 C99.1470225,27.8577739 98.7667856,28.0257611 98.5069565,28.3250526 C97.9551541,29.1463766 97.9551541,30.218676 98.5069565,31.04 C98.7784487,31.3409931 99.1684479,31.508386 99.57427,31.4981053 C100.249785,31.4981053 100.699002,31.2185263 100.871259,30.6661053 C100.876333,30.6310283 100.906653,30.6051105 100.942188,30.6054737 L101.327231,30.6054737 C101.364384,30.6054737 101.388027,30.6054737 101.388027,30.6593684 C101.383825,30.8486935 101.321329,31.0321472 101.209016,31.1848421 C100.82944,31.7017874 100.207836,31.9849606 99.5675149,31.9326316 C99.0143708,31.9492265 98.4806466,31.7284661 98.1016476,31.3263158 M105.059451,31.7776842 L105.059451,27.5907368 C105.059451,27.5469474 105.076339,27.5267368 105.120247,27.5267368 L105.552577,27.5267368 C105.593108,27.5267368 105.613373,27.5469474 105.613373,27.5907368 L105.613373,29.5006316 L108.021584,29.5006316 L108.021584,27.5907368 C108.019536,27.5738163 108.025152,27.5568653 108.036905,27.5444926 C108.048659,27.5321199 108.065327,27.5256115 108.08238,27.5267368 L108.518087,27.5267368 C108.558618,27.5267368 108.575506,27.5469474 108.575506,27.5907368 L108.575506,31.7776842 C108.575506,31.8181053 108.575506,31.8383158 108.518087,31.8383158 L108.08238,31.8383158 C108.065664,31.8405703 108.048852,31.8349116 108.036924,31.8230166 C108.024997,31.8111216 108.019323,31.7943546 108.021584,31.7776842 L108.021584,29.9284211 L105.613373,29.9284211 L105.613373,31.7776842 C105.615634,31.7943546 105.60996,31.8111216 105.598032,31.8230166 C105.586105,31.8349116 105.569292,31.8405703 105.552577,31.8383158 L105.120247,31.8383158 C105.076339,31.8383158 105.059451,31.8181053 105.059451,31.7776842 M112.547533,31.7776842 L112.547533,27.5907368 C112.547533,27.5469474 112.567799,27.5267368 112.604952,27.5267368 L115.597483,27.5267368 C115.638014,27.5267368 115.658279,27.5469474 115.658279,27.5907368 L115.658279,27.8972632 C115.66054,27.9139335 115.654866,27.9307005 115.642938,27.9425955 C115.631011,27.9544906 115.614199,27.9601493 115.597483,27.9578947 L113.101455,27.9578947 L113.101455,29.4332632 L115.175286,29.4332632 C115.19323,29.4321521 115.210748,29.4390189 115.223131,29.4520183 C115.235514,29.4650176 115.241492,29.4828163 115.23946,29.5006316 L115.23946,29.8037895 C115.23946,29.8509474 115.215817,29.8677895 115.175286,29.8677895 L113.111588,29.8677895 L113.111588,31.4071579 L115.607616,31.4071579 C115.624331,31.4049034 115.641144,31.410562 115.653071,31.4224571 C115.664999,31.4343521 115.670673,31.4511191 115.668412,31.4677895 L115.668412,31.7776842 C115.670673,31.7943546 115.664999,31.8111216 115.653071,31.8230166 C115.641144,31.8349116 115.624331,31.8405703 115.607616,31.8383158 L112.615085,31.8383158 C112.577931,31.8383158 112.557666,31.8181053 112.557666,31.7776842 M118.951414,30.7233684 C118.951414,30.6863158 118.97168,30.6661053 119.015588,30.6661053 L119.404009,30.6661053 C119.439406,30.6679408 119.469502,30.6924984 119.478316,30.7267368 C119.650572,31.2421053 120.093034,31.4981053 120.798947,31.4981053 C121.095114,31.5179818 121.390446,31.4487494 121.646719,31.2993684 C121.824671,31.2001361 121.936514,31.0142364 121.940568,30.8109474 C121.9483,30.6356206 121.880731,30.4653188 121.754801,30.3427368 C121.589884,30.1991043 121.391189,30.099447 121.177236,30.0530526 L120.093034,29.7431579 C119.397254,29.5444211 119.045986,29.1671579 119.045986,28.6046316 C119.042833,28.2685784 119.207406,27.9529501 119.485071,27.7625263 C119.833083,27.5248318 120.24923,27.4065927 120.6706,27.4256842 C121.094687,27.4103468 121.512901,27.5281664 121.866261,27.7625263 C122.16792,27.9631775 122.376043,28.2763365 122.443826,28.6315789 C122.443826,28.6821053 122.443826,28.7090526 122.379652,28.7090526 L121.991231,28.7090526 C121.955729,28.6999127 121.930799,28.668144 121.930435,28.6315789 C121.758178,28.1195789 121.349492,27.8635789 120.69762,27.8635789 C120.418226,27.846868 120.140312,27.9149838 119.900513,28.0589474 C119.725393,28.1629392 119.617726,28.3508464 119.616796,28.5541053 C119.607406,28.7280534 119.673911,28.8975512 119.799185,29.0189474 C119.971882,29.1585749 120.173913,29.2575896 120.390261,29.3086316 L121.471085,29.6185263 C122.166865,29.8138947 122.514779,30.1934035 122.514779,30.7570526 C122.516409,31.0986759 122.344876,31.4180037 122.058783,31.6058947 C121.690145,31.8454037 121.255321,31.9632422 120.815835,31.9427368 C120.373722,31.9638776 119.935264,31.8536809 119.556,31.6261053 C119.396936,31.5180021 119.257573,31.3835744 119.143936,31.2286316 C119.033746,31.0865879 118.972181,30.9130221 118.968302,30.7334737"/>
    <path d="M24.0719725,0.00842112487 C24.8235924,0.00529125819 25.571115,0.118934055 26.2876613,0.34526323 C27.0067292,0.580643714 27.6739813,0.951096952 28.2534096,1.43663165 L29.3477437,0.301473756 L29.972595,0.301473756 L29.972595,5.59326323 L29.1585995,5.59326323 C29.0232773,4.84750367 28.7963989,4.12119752 28.4830847,3.43073691 C28.325389,3.08542373 28.1257418,2.76074497 27.8886316,2.46400007 C27.6571263,2.16570297 27.3801842,1.90542362 27.067881,1.69263165 C26.6001057,1.39004006 26.0963432,1.1467621 25.568238,0.968421125 C25.0458998,0.792890667 24.4981949,0.704129821 23.9470023,0.705684283 C23.1395438,0.672011717 22.3388976,0.86579401 21.6367414,1.26484218 C21.0459218,1.62521693 20.5566227,2.12941722 20.2147826,2.73010534 C19.8585608,3.36728957 19.6205683,4.06335695 19.5122471,4.78484218 C19.3887064,5.54439588 19.3265842,6.31262401 19.3264805,7.08210534 C19.3264805,7.70526323 19.3028375,8.44968428 19.2623066,9.32210534 C19.2217757,10.1945264 19.2217757,11.087158 19.2623066,12.0000001 C19.3042332,12.8900695 19.4171761,13.775395 19.6000641,14.647579 C19.7460757,15.4225776 20.0608375,16.1561811 20.5221419,16.7966317 C20.8871714,17.3116182 21.3745842,17.7282684 21.9407231,18.0092632 C22.4868057,18.2775238 23.0822872,18.4311498 23.6903066,18.4606317 C24.9502807,18.5161074 26.1908986,18.136603 27.202984,17.3861053 C27.82933,16.9020829 28.3182789,16.2635278 28.6215652,15.5334738 C28.9455444,14.8145065 29.2120757,14.0711423 29.4186728,13.3103159 L30.2326682,13.3103159 C30.1631724,13.6889727 30.0683892,14.0625764 29.9489519,14.4286317 L29.9388192,14.4353685 C29.8137382,14.8388159 29.662556,15.2337497 29.4862243,15.6176843 C29.3164665,16.0009227 29.1189177,16.371308 28.8951487,16.7258948 C28.6932044,17.0452531 28.457695,17.3422297 28.1926133,17.6117895 C27.6259566,18.1712396 26.9299882,18.5830618 26.1660686,18.8109474 C25.398518,19.0369815 24.6020767,19.1504505 23.8017666,19.1477895 C22.6159184,19.1578379 21.4461003,18.8742776 20.3971716,18.3225264 C19.3628957,17.778297 18.4450553,17.0380053 17.6951121,16.143158 C16.9346901,15.2399097 16.3328807,14.2149369 15.9151304,13.111579 C15.4921106,12.0186699 15.2745681,10.8574008 15.2733913,9.68589481 C15.2641589,8.43386244 15.4756603,7.18995577 15.8982426,6.01094744 C16.3279984,4.84573883 16.9858818,3.77742864 17.8335927,2.8682106 C18.6190162,1.99194104 19.5691642,1.277828 20.6302243,0.766315862 C21.7051081,0.256976745 22.8819724,-0.00217621492 24.0719725,0.00842112487 Z M91.5619842,-2.80250373e-05 L91.8970435,0.00842112487 C92.9799447,0.0774176967 94.0352033,0.378431319 94.9909016,0.890947441 C95.9851434,1.4144415 96.8737485,2.1167754 97.6118993,2.96252639 C98.384451,3.8469163 98.995994,4.85921253 99.4189016,5.95368428 L99.4189016,5.95368428 C99.8765494,7.10798046 100.10582,8.33811338 100.097794,9.57810534 C100.105754,10.819185 99.8764928,12.0504086 99.4222792,13.2058948 C98.999128,14.2999725 98.3863342,15.3113065 97.6118993,16.1936843 C96.8738072,17.0381918 95.9836768,17.7373984 94.987524,18.255158 C93.0267059,19.317824 90.6860434,19.427032 88.6343066,18.551579 C87.4401163,18.038732 86.3820328,17.2556809 85.5438261,16.2644211 C83.8616835,14.441835 82.9452481,12.0448213 82.9836247,9.56800007 C82.9454245,7.09221515 83.861895,4.69631565 85.5438261,2.87494744 C86.3802242,1.8817701 87.4388001,1.09835463 88.6343066,0.587789546 C89.6646153,0.15328801 90.7796732,-0.0447142627 91.8970435,0.00842112487 L91.5619842,-2.80250373e-05 Z M8.93030664,0.581052704 L8.93030664,1.26484218 L6.21135927,1.26484218 L6.21135927,18.2046317 L8.93030664,18.2046317 L8.93030664,18.8884211 L2.71556979,18.8884211 L2.71556979,1.26484218 L0,1.26484218 L0,0.581052704 L8.93030664,0.581052704 Z M109.305062,0.426105335 L109.305062,1.10989481 L113.141986,7.39873691 L117.482169,1.10989481 L117.512568,1.10989481 L117.512568,0.426105335 L121.011735,0.426105335 L121.011735,1.10989481 L118.417757,1.10989481 L113.577693,8.1162106 L119.947799,18.0496843 L122.008119,18.0496843 L122.008119,18.7334738 L113.050792,18.7334738 L113.050792,18.0496843 L115.857556,18.0496843 L111.551149,11.1343159 L106.305776,18.7637895 L105.336412,18.7637895 L111.051268,10.4202106 L105.36681,1.10989481 L103.276092,1.10989481 L103.276092,0.426105335 L109.305062,0.426105335 Z M68.713373,0.436210599 C69.5549241,0.440268922 70.3949607,0.507830225 71.2262883,0.638315862 C72.0772215,0.754066408 72.8955235,1.04175909 73.6311213,1.48378955 C74.1681541,1.8141233 74.6094049,2.27856123 74.911222,2.83115797 C75.1962675,3.34877562 75.3569771,3.92530136 75.3807048,4.51536849 C75.3953006,5.10355398 75.2799905,5.68774187 75.0429474,6.22652639 C74.7966416,6.79633694 74.4153154,7.29799987 73.9317254,7.68842112 C73.3926262,8.16625631 72.7601139,8.52753166 72.0740595,8.74947376 C71.387924,8.97425673 70.6840278,9.1410213 69.9698307,9.24800007 C70.6553631,9.31805329 71.3334531,9.44766832 71.9963753,9.63536849 C72.6831779,9.82428988 73.3402397,10.107716 73.9486133,10.4774738 C74.5308914,10.8290864 75.03076,11.3011814 75.4144805,11.8618948 C75.8075249,12.4481808 76.0103336,13.1408006 75.9954233,13.8458948 C76.0061045,14.5492655 75.8571539,15.2459389 75.5597162,15.8837895 L75.5529611,15.8837895 C75.2405488,16.5201797 74.7767129,17.0706486 74.2019314,17.487158 C73.495586,17.9891431 72.6892583,18.3337756 71.8376293,18.4976843 C70.9884371,18.6618654 70.1255411,18.7453271 69.26054,18.7469474 L62.2689611,18.7469474 L62.2689611,1.10989481 L59.5669016,1.10989481 L59.5669016,0.436210599 L68.713373,0.436210599 Z M52.0349108,0.426105335 L52.2105446,5.11494744 L51.3695286,5.11494744 C51.1838126,4.21337683 50.8148233,3.35932041 50.2853272,2.60547376 C49.8417724,2.02850272 49.2327577,1.59970594 48.5391213,1.37600007 C47.7727252,1.14821401 46.9739019,1.04806267 46.1748192,1.07957902 C45.2786362,1.09978955 44.2586087,1.10989481 43.1147368,1.10989481 L43.1147368,1.10989481 L43.1147368,8.99200007 C43.4491167,8.99200007 43.9118444,9.0122106 44.5062975,9.05263165 C45.1136893,9.08981322 45.7227958,9.08981322 46.3301876,9.05263165 C46.8481631,9.02746273 47.3604507,8.93343914 47.8534737,8.7730527 C48.3491573,8.66092766 48.7906896,8.38125493 49.1031762,7.98147376 C49.207881,7.83663165 49.3024531,7.71200007 49.3835149,7.60757902 C49.4637066,7.50940249 49.5370592,7.40586178 49.6030572,7.29768428 C49.6645478,7.19374629 49.7068729,7.07966408 49.7280275,6.96084218 C49.7405115,6.87599408 49.7484039,6.79053696 49.7516705,6.70484218 L49.7516705,6.70484218 L50.5521556,6.70484218 L50.5521556,12.7680001 L49.7449153,12.7680001 C49.74368,12.077275 49.5406284,11.4018802 49.160595,10.8244211 C48.7676892,10.312589 48.2111411,9.95008978 47.5832677,9.7970527 C46.9461733,9.62144094 46.2831118,9.55873482 45.6242746,9.61178955 C44.7900137,9.6522106 43.9591304,9.67242112 43.1248696,9.67242112 L43.1248696,9.67242112 L43.1248696,18.0496843 C44.264238,18.0496843 45.2842654,18.0597895 46.1849519,18.0800001 C46.9840347,18.1115164 47.7828579,18.0113651 48.549254,17.783579 C49.2422186,17.5585352 49.8508658,17.1299971 50.29546,16.5541053 L50.29546,16.5541053 L50.3055927,16.5440001 C50.7882983,15.8565046 51.1324348,15.0820077 51.318865,14.263579 L51.318865,14.263579 L52.2139222,14.263579 L52.0450435,18.7233685 L36.9033776,18.7233685 L36.9033776,18.0496843 L39.6054371,18.0496843 L39.6054371,1.09978955 L36.9033776,1.09978955 L36.9033776,0.426105335 L52.0349108,0.426105335 Z M91.7910649,0.707888757 L91.5086224,0.709052704 C90.866241,0.705342372 90.2278656,0.810121213 89.6205584,1.01894744 C89.0192864,1.23625734 88.4954047,1.62517523 88.1141602,2.13726323 C87.6540821,2.71656402 87.3484942,3.40256307 87.2258581,4.13136849 C87.0904169,4.8500012 87.0214498,5.57952191 87.0198261,6.31073691 L87.0198261,6.31073691 L87.0198261,12.8488422 C87.0153099,13.5747643 87.0843377,14.2992846 87.2258581,15.0113685 C87.3426648,15.6450158 87.5861843,16.2487278 87.9419039,16.7865264 C88.2955182,17.3024003 88.7742142,17.7207036 89.3334645,18.0025264 C90.0153513,18.3247085 90.7646477,18.4794745 91.5187551,18.4538948 C92.1657583,18.4566205 92.8086178,18.3508448 93.4203295,18.1406317 C94.0319436,17.9288804 94.5652181,17.537933 94.9503707,17.0189474 C95.4147592,16.4482868 95.7220763,15.7668236 95.8420503,15.0416843 C95.9740166,14.3180869 96.04183,13.5843051 96.0447048,12.8488422 L96.0447048,12.8488422 L96.0345721,6.30736849 C96.0381064,5.57970627 95.9645169,4.85370917 95.8150297,4.14147376 C95.6874445,3.50825894 95.4385878,2.9055305 95.0820961,2.36631586 C94.7273782,1.85524952 94.2501864,1.44071986 93.693913,1.16042112 C93.0120262,0.838238986 92.2627298,0.683472967 91.5086224,0.709052704 L91.7910649,0.707888757 Z M67.1225355,9.57810534 C66.626032,9.61178955 66.1768146,9.62863165 65.7715057,9.62863165 L65.7715057,18.0496843 L69.3922654,18.0496843 C69.8706745,18.0623224 70.3394259,17.9140099 70.7230297,17.6286317 C71.1055757,17.3361776 71.4086345,16.9528803 71.6045767,16.5136843 C71.8218837,16.0292497 71.9696968,15.5167076 72.0436613,14.991158 C72.1252339,14.4334789 72.1399737,13.8681004 72.0875698,13.3069474 C72.0431646,12.7836899 71.9389084,12.2672123 71.776833,11.767579 C71.651624,11.3466192 71.4450955,10.9541343 71.1688696,10.6122106 C70.8613603,10.2651186 70.4693363,10.0029307 70.030627,9.85094744 L70.0137391,9.89136849 C69.5592043,9.73597257 69.0873653,9.63643096 68.6086682,9.59494744 C68.1143306,9.55392429 67.6176801,9.54829583 67.1225355,9.57810534 Z M66.9975652,1.08294744 C66.5179497,1.11326323 66.1126407,1.12673691 65.7816384,1.12673691 L65.7816384,8.94147376 C66.6958352,8.94147376 67.5132082,8.93136849 68.2337574,8.91115797 C68.8624822,8.91003031 69.4839245,8.77689707 70.0576476,8.52042112 C70.5738125,8.26441176 70.9828629,7.83499921 71.212778,7.30778955 C71.5248321,6.51054868 71.6641145,5.65645589 71.6214645,4.80168428 C71.6201747,4.30991643 71.572681,3.81935101 71.4796064,3.33642112 L71.4796064,3.31957902 C71.3923945,2.84995096 71.1944245,2.40774609 70.9020412,2.02947376 C70.6268508,1.69528212 70.2573781,1.45119918 69.8414828,1.32884218 C69.3890315,1.19220291 68.9219038,1.10965944 68.4499222,1.08294744 C67.9663925,1.04925867 67.4810949,1.04925867 66.9975652,1.08294744 Z"/>
  </g>
</svg>
