<?xml version="1.0" encoding="UTF-8"?><!DOCTYPE svg PUBLIC "-//W3C//DTD SVG 1.1//EN" "http://www.w3.org/Graphics/SVG/1.1/DTD/svg11.dtd"><svg xmlns="http://www.w3.org/2000/svg" xmlns:xlink="http://www.w3.org/1999/xlink"><symbol id="icon-facebook" viewBox="-21 -21 682.667 682.667"><path d="M604.672 0H35.297C15.8.012-.003 15.824 0 35.328v569.375C.012 624.2 15.824 640.003 35.328 640h306.547V392.5H258.75v-96.875h83.125v-71.293c0-82.676 50.473-127.676 124.223-127.676 35.324 0 65.68 2.633 74.527 3.809v86.41H489.77c-40.125 0-47.895 19.066-47.895 47.05v61.7h95.938l-12.5 96.875h-83.438V640h162.797c19.508.004 35.324-15.805 35.328-35.313V35.298C639.992 15.8 624.176-.003 604.672 0zm0 0"/></symbol><symbol id="icon-groupme" viewBox="-64 -21 682 682.667"><path d="M253.242 175.313h42.29v42.523h-42.29zm0 0"/><path d="M430.45 0H118.331C51.598 0-2.5 54.395-2.5 121.488v313.828c0 67.09 54.094 121.485 120.832 121.485h103.879L273.85 640l51.657-83.2h104.941c66.73 0 120.836-54.394 120.836-121.484V121.484C551.285 54.394 497.18 0 430.45 0zM162.835 217.836h44.793v-42.524h-44.793v-45.859h44.793V84.422h45.613v45.031h42.29V84.422h45.613v45.031h44.777v45.86h-44.777v42.53h44.777v45.852h-44.777v45.032H295.53v-45.032h-42.293v45.032H207.62v-45.032h-44.785zm320.793 140.351s-60.215 114.024-203.18 114.024h-11.754c-142.96 0-203.175-114.024-203.175-114.024s-3.899-7.425-3.899-15.43c-.242-5.773 2.563-14.054 9.938-18.933 4.101-2.71 7.976-4.054 11.57-4.472 17.219-1.836 27.195 9.437 35.398 22.304 9.063 14.203 61.332 76.426 156.043 78.805 94.711-2.379 146.989-64.602 156.047-78.805 8.203-12.867 18.54-24.16 35.395-22.304 3.593.418 7.476 1.761 11.57 4.472 7.375 4.88 10.25 11.746 9.988 18.93-.578 10.562-3.941 15.434-3.941 15.434zm0 0"/></symbol><symbol id="icon-instagram" viewBox="0 0 511 511.9"><path d="M510.95 150.5c-1.2-27.2-5.598-45.898-11.9-62.102-6.5-17.199-16.5-32.597-29.6-45.398-12.802-13-28.302-23.102-45.302-29.5-16.296-6.3-34.898-10.7-62.097-11.898C334.648.3 325.949 0 256.449 0s-78.199.3-105.5 1.5c-27.199 1.2-45.898 5.602-62.097 11.898-17.204 6.5-32.602 16.5-45.403 29.602-13 12.8-23.097 28.3-29.5 45.3-6.3 16.302-10.699 34.9-11.898 62.098C.75 177.801.449 186.5.449 256s.301 78.2 1.5 105.5c1.2 27.2 5.602 45.898 11.903 62.102 6.5 17.199 16.597 32.597 29.597 45.398 12.801 13 28.301 23.102 45.301 29.5 16.3 6.3 34.898 10.7 62.102 11.898 27.296 1.204 36 1.5 105.5 1.5s78.199-.296 105.5-1.5c27.199-1.199 45.898-5.597 62.097-11.898a130.934 130.934 0 0074.903-74.898c6.296-16.301 10.699-34.903 11.898-62.102 1.2-27.3 1.5-36 1.5-105.5s-.102-78.2-1.3-105.5zm-46.098 209c-1.102 25-5.301 38.5-8.801 47.5-8.602 22.3-26.301 40-48.602 48.602-9 3.5-22.597 7.699-47.5 8.796-27 1.204-35.097 1.5-103.398 1.5s-76.5-.296-103.403-1.5c-25-1.097-38.5-5.296-47.5-8.796C94.551 451.5 84.45 445 76.25 436.5c-8.5-8.3-15-18.3-19.102-29.398-3.5-9-7.699-22.602-8.796-47.5-1.204-27-1.5-35.102-1.5-103.403s.296-76.5 1.5-103.398c1.097-25 5.296-38.5 8.796-47.5C61.25 94.199 67.75 84.1 76.352 75.898c8.296-8.5 18.296-15 29.398-19.097 9-3.5 22.602-7.7 47.5-8.801 27-1.2 35.102-1.5 103.398-1.5 68.403 0 76.5.3 103.403 1.5 25 1.102 38.5 5.3 47.5 8.8 11.097 4.098 21.199 10.598 29.398 19.098 8.5 8.301 15 18.301 19.102 29.403 3.5 9 7.699 22.597 8.8 47.5 1.2 27 1.5 35.097 1.5 103.398s-.3 76.301-1.5 103.301zm0 0"/><path d="M256.45 124.5c-72.598 0-131.5 58.898-131.5 131.5s58.902 131.5 131.5 131.5c72.6 0 131.5-58.898 131.5-131.5s-58.9-131.5-131.5-131.5zm0 216.8c-47.098 0-85.302-38.198-85.302-85.3s38.204-85.3 85.301-85.3c47.102 0 85.301 38.198 85.301 85.3s-38.2 85.3-85.3 85.3zm167.402-222c0 16.954-13.747 30.7-30.704 30.7-16.953 0-30.699-13.746-30.699-30.7 0-16.956 13.746-30.698 30.7-30.698 16.956 0 30.703 13.742 30.703 30.699zm0 0"/></symbol><symbol id="icon-reddit" viewBox="-21 -56 682.667 682"><path d="M429.93 388.258c-27.567 0-50.043-22.473-50.043-50.043 0-27.567 22.476-50.043 50.043-50.043 27.57 0 50.047 22.476 50.047 50.043 0 27.57-22.477 50.043-50.047 50.043m8.84 82.129c-34.196 34.097-99.61 36.789-118.817 36.789-19.21 0-84.719-2.692-118.82-36.79a12.939 12.939 0 010-18.347 12.937 12.937 0 0118.351 0c21.512 21.52 67.524 29.203 100.47 29.203 32.85 0 78.952-7.683 100.472-29.203a12.927 12.927 0 0118.344 0c4.996 5.094 4.996 13.258 0 18.348M159.734 338.219c0-27.567 22.477-50.043 50.047-50.043 27.567 0 50.043 22.476 50.043 50.043s-22.476 50.047-50.043 50.047c-27.57-.008-50.047-22.48-50.047-50.047M640 288.176c0-38.711-31.313-70.024-70.023-70.024-18.922 0-36.024 7.489-48.602 19.692-47.836-34.578-113.82-56.864-187.305-59.457l31.89-150.133 104.22 22.191c1.25 26.512 22.953 47.645 49.757 47.645 27.66 0 50.043-22.383 50.043-50.047C569.98 20.383 547.598-2 519.937-2c-19.695 0-36.503 11.43-44.667 27.95L358.852 1.167c-3.266-.672-6.625-.09-9.414 1.73-2.782 1.825-4.708 4.61-5.375 7.875 0 0-34.965 166.559-34.965 167.52-74.825 1.918-142.063 24.3-190.664 59.36-12.582-12.102-29.586-19.5-48.41-19.5C31.312 218.152 0 249.558 0 288.175c0 28.43 17 52.926 41.398 63.87a140.986 140.986 0 00-1.632 21.231c0 107.77 125.445 195.086 280.187 195.086 154.738 0 280.184-87.316 280.184-195.086 0-7.109-.574-14.12-1.63-21.035C622.81 341.293 640 316.801 640 288.176"/></symbol><symbol id="icon-twitter" viewBox="-21 -81 681.335 681"><path d="M200.965 515.293c241.05 0 372.87-199.703 372.87-372.871 0-5.672-.116-11.32-.37-16.938a266.692 266.692 0 0065.37-67.863c-23.48 10.441-48.753 17.461-75.257 20.637 27.055-16.23 47.828-41.895 57.625-72.488a262.838 262.838 0 01-83.215 31.808c-23.914-25.473-57.965-41.402-95.664-41.402-72.367 0-131.058 58.687-131.058 131.031 0 10.29 1.152 20.29 3.398 29.883C205.746 151.61 109.16 99.465 44.531 20.168 33.281 39.531 26.79 62.031 26.79 86.039c0 45.461 23.137 85.606 58.316 109.082-21.5-.66-41.695-6.562-59.351-16.387-.02.551-.02 1.086-.02 1.672 0 63.469 45.172 116.461 105.145 128.469a131.531 131.531 0 01-34.559 4.61c-8.43 0-16.648-.829-24.632-2.364 16.683 52.07 65.066 89.961 122.425 91.024-44.855 35.156-101.36 56.097-162.77 56.097-10.562 0-21.003-.605-31.261-1.816 58 37.176 126.871 58.87 200.887 58.87"/></symbol><symbol id="icon-youtube" viewBox="-21 -117 682.667 682"><path d="M626.813 64.035c-7.375-27.418-28.993-49.031-56.407-56.414C520.324-6.082 319.992-6.082 319.992-6.082s-200.324 0-250.406 13.184c-26.887 7.375-49.031 29.52-56.406 56.933C0 114.113 0 217.97 0 217.97s0 104.379 13.18 153.933c7.382 27.414 28.992 49.028 56.41 56.41C120.195 442.02 320 442.02 320 442.02s200.324 0 250.406-13.184c27.418-7.379 49.032-28.992 56.414-56.406 13.176-50.082 13.176-153.934 13.176-153.934s.527-104.383-13.183-154.46zM256.21 313.915V122.022l166.586 95.946zm0 0"/></symbol></svg>