<svg xmlns="http://www.w3.org/2000/svg" xmlns:xlink="http://www.w3.org/1999/xlink"><defs><style>.cls-1{fill:#323232;}</style><style>.cls-1{fill:#323232;fill-rule:evenodd;}</style><style>.cls-1{fill:#323232;}</style><style>.cls-1{fill:#323232;}</style><style>.cls-1{fill:#323232;}</style><style>.cls-1{fill:#323232;}</style></defs><symbol id="icon-arrow-right" viewBox="0 0 14 13">
<path d="M7.8189 0L6.56002 1.24031L10.5919 5.21257H0V6.96664H10.5919L6.56002 10.9388L7.8189 12.1791L14 6.08954L7.8189 0Z"/>
</symbol><symbol id="icon-delivered" viewBox="0 0 14.33 14.33"><g id="Layer_2" data-name="Layer 2"><g id="Layer_1-2" data-name="Layer 1"><path class="cls-1" d="M14.2,7.41l-.44-1.1h0l-.63-1.58A1.16,1.16,0,0,0,12.05,4H9.67V3.83A1.17,1.17,0,0,0,8.5,2.67H8A3.26,3.26,0,0,0,4.77,0h0a3.24,3.24,0,0,0-2.3,1,3.37,3.37,0,0,0-.91,1.7H1.17A1.16,1.16,0,0,0,0,3.83v8.28a1.17,1.17,0,0,0,1.17,1.17h.92a1.47,1.47,0,0,0,.37.6,1.54,1.54,0,0,0,1.1.45h0a1.58,1.58,0,0,0,1.1-.45,1.48,1.48,0,0,0,.36-.6h4.4a1.72,1.72,0,0,0,.37.6,1.54,1.54,0,0,0,1.1.45h0a1.56,1.56,0,0,0,1.1-.45,1.52,1.52,0,0,0,.38-.66h.8a1.16,1.16,0,0,0,1.16-1.16v-4A1.79,1.79,0,0,0,14.2,7.41Zm-.93.37a.85.85,0,0,1,.06.31v.58H11.67V7H13ZM4.76,1h0A2.28,2.28,0,1,1,2.49,3.27a2.22,2.22,0,0,1,.68-1.59A2.24,2.24,0,0,1,4.76,1ZM1.17,3.67h.36A3.26,3.26,0,0,0,8,3.67h.5a.17.17,0,0,1,.17.16v5.5H1V3.83A.16.16,0,0,1,1.17,3.67ZM4,13.17a.54.54,0,0,1-.39.16.55.55,0,0,1-.4-.16.57.57,0,0,1,0-.79.57.57,0,0,1,.79,0,.59.59,0,0,1,.16.4A.57.57,0,0,1,4,13.17Zm7.33,0a.51.51,0,0,1-.39.16h0a.51.51,0,0,1-.39-.16.56.56,0,0,1-.17-.39h0a.58.58,0,0,1,.17-.4.57.57,0,0,1,.39-.16.59.59,0,0,1,.39.16A.56.56,0,0,1,11.28,13.17Zm1.89-.95h-.83a1.57,1.57,0,0,0-.35-.54,1.55,1.55,0,0,0-2.2,0,1.51,1.51,0,0,0-.37.6H5a1.48,1.48,0,0,0-.36-.6,1.55,1.55,0,0,0-2.2,0,1.4,1.4,0,0,0-.37.6H1.17A.17.17,0,0,1,1,12.11V10.33H9.17a.5.5,0,0,0,.5-.5V5h2.38a.15.15,0,0,1,.15.1l.36.9H11.17a.5.5,0,0,0-.5.5V9.17a.5.5,0,0,0,.5.5h2.16v2.39A.16.16,0,0,1,13.17,12.22Z"/><path class="cls-1" d="M3.18,3.63l.92.92a.53.53,0,0,0,.36.15.51.51,0,0,0,.35-.15L6.35,3a.5.5,0,0,0,0-.71.51.51,0,0,0-.71,0L4.46,3.49l-.57-.57a.5.5,0,0,0-.71.71Z"/></g></g></symbol><symbol id="icon-delivery-box" viewBox="0 0 15.01 13.02"><g id="Layer_2" data-name="Layer 2"><g id="Layer_1-2" data-name="Layer 1"><path class="cls-1" d="M14.86,6.66a.5.5,0,0,0-.71,0L14,6.81A6.49,6.49,0,0,0,2.21,2.75.5.5,0,0,0,3,3.33,5.49,5.49,0,0,1,13,6.8l-.14-.14a.5.5,0,0,0-.71,0,.51.51,0,0,0,0,.71l1,1a.51.51,0,0,0,.71,0l1-1A.51.51,0,0,0,14.86,6.66Z"/><path class="cls-1" d="M12,9.7A5.5,5.5,0,0,1,2,6.22l.15.15a.5.5,0,0,0,.7,0,.5.5,0,0,0,0-.71l-1-1a.51.51,0,0,0-.35-.15.51.51,0,0,0-.35.15l-1,1a.5.5,0,0,0,0,.71.5.5,0,0,0,.7,0L1,6.22a6.49,6.49,0,0,0,11.79,4.05A.5.5,0,0,0,12,9.7Z"/><path class="cls-1" d="M9.17,9.35a1.17,1.17,0,0,0,1.17-1.17V5.8a2.56,2.56,0,0,0-.2-1L10,4.39a1.17,1.17,0,0,0-1.07-.71H6.13a1.18,1.18,0,0,0-1.08.71l-.18.43a2.56,2.56,0,0,0-.2,1V8.18A1.17,1.17,0,0,0,5.84,9.35ZM9,4.78l.19.43a1.52,1.52,0,0,1,.1.47H8v-1h.88A.16.16,0,0,1,9,4.78ZM6,4.78a.18.18,0,0,1,.16-.1H7v1H5.68a1.53,1.53,0,0,1,.11-.47Zm-.3,3.4V6.7a0,0,0,0,1,0,0H9.32l0,0V8.18a.18.18,0,0,1-.17.17H5.84A.17.17,0,0,1,5.67,8.18Z"/></g></g></symbol><symbol id="icon-facebook" viewBox="-21 -21 682.667 682.667"><path d="M604.672 0H35.297C15.8.012-.003 15.824 0 35.328v569.375C.012 624.2 15.824 640.003 35.328 640h306.547V392.5H258.75v-96.875h83.125v-71.293c0-82.676 50.473-127.676 124.223-127.676 35.324 0 65.68 2.633 74.527 3.809v86.41H489.77c-40.125 0-47.895 19.066-47.895 47.05v61.7h95.938l-12.5 96.875h-83.438V640h162.797c19.508.004 35.324-15.805 35.328-35.313V35.298C639.992 15.8 624.176-.003 604.672 0zm0 0"/></symbol><symbol id="icon-groupme" viewBox="-64 -21 682 682.667"><path d="M253.242 175.313h42.29v42.523h-42.29zm0 0"/><path d="M430.45 0H118.331C51.598 0-2.5 54.395-2.5 121.488v313.828c0 67.09 54.094 121.485 120.832 121.485h103.879L273.85 640l51.657-83.2h104.941c66.73 0 120.836-54.394 120.836-121.484V121.484C551.285 54.394 497.18 0 430.45 0zM162.835 217.836h44.793v-42.524h-44.793v-45.859h44.793V84.422h45.613v45.031h42.29V84.422h45.613v45.031h44.777v45.86h-44.777v42.53h44.777v45.852h-44.777v45.032H295.53v-45.032h-42.293v45.032H207.62v-45.032h-44.785zm320.793 140.351s-60.215 114.024-203.18 114.024h-11.754c-142.96 0-203.175-114.024-203.175-114.024s-3.899-7.425-3.899-15.43c-.242-5.773 2.563-14.054 9.938-18.933 4.101-2.71 7.976-4.054 11.57-4.472 17.219-1.836 27.195 9.437 35.398 22.304 9.063 14.203 61.332 76.426 156.043 78.805 94.711-2.379 146.989-64.602 156.047-78.805 8.203-12.867 18.54-24.16 35.395-22.304 3.593.418 7.476 1.761 11.57 4.472 7.375 4.88 10.25 11.746 9.988 18.93-.578 10.562-3.941 15.434-3.941 15.434zm0 0"/></symbol><symbol id="icon-help" viewBox="0 0 28.17 25.47"><g id="Layer_2" data-name="Layer 2"><g id="bag-question"><g id="help"><path class="cls-1" d="M25.5,16.9V11.38A2.08,2.08,0,0,0,23.42,9.3H19a2.08,2.08,0,0,0-2.08,2.08v5.43h-2.2l-.83-4.69A3.42,3.42,0,0,0,10.51,9.3H7a3.4,3.4,0,0,0-3.37,2.86l-.79,4.71A3.42,3.42,0,0,0,0,20.23v1.82a3.42,3.42,0,0,0,3.42,3.42H24.75a3.43,3.43,0,0,0,3.42-3.42V20.23A3.42,3.42,0,0,0,25.5,16.9Zm-7.09-5.52A.58.58,0,0,1,19,10.8h4.43a.58.58,0,0,1,.58.58v5.43H18.41Zm-13.29,1A1.9,1.9,0,0,1,7,10.8h3.5a1.91,1.91,0,0,1,1.89,1.58l.79,4.43H4.39Zm21.55,9.65A1.92,1.92,0,0,1,24.75,24H3.42A1.92,1.92,0,0,1,1.5,22.05V20.23a1.92,1.92,0,0,1,1.92-1.92H24.75a1.92,1.92,0,0,1,1.92,1.92Z"/><path class="cls-1" d="M8.75,7a3.5,3.5,0,0,0,3.51-3.51,3.45,3.45,0,0,0-1-2.48,3.59,3.59,0,0,0-5,0,3.48,3.48,0,0,0-1,2.48A3.5,3.5,0,0,0,8.75,7ZM7.33,2.06A2,2,0,1,1,10.17,4.9a2,2,0,0,1-2.84,0,2,2,0,0,1-.59-1.42A2,2,0,0,1,7.33,2.06Z"/></g></g></g></symbol><symbol id="icon-info" viewBox="0 0 24 24">
<path fill-rule="evenodd" clip-rule="evenodd" d="M11 8.25272C10.9975 7.69648 11.4487 7.25 11.999 7.25C12.5503 7.25 13 7.69584 13 8.25C13 8.80221 12.5522 9.25 12 9.25C11.4487 9.25 11.0015 8.80368 11 8.25272Z"/>
<path fill-rule="evenodd" clip-rule="evenodd" d="M12 3.75C7.44321 3.75 3.75 7.44321 3.75 12C3.75 16.5568 7.44321 20.25 12 20.25C16.5568 20.25 20.25 16.5568 20.25 12C20.25 7.44321 16.5568 3.75 12 3.75ZM2.25 12C2.25 6.61479 6.61479 2.25 12 2.25C17.3852 2.25 21.75 6.61479 21.75 12C21.75 17.3852 17.3852 21.75 12 21.75C6.61479 21.75 2.25 17.3852 2.25 12Z"/>
<path fill-rule="evenodd" clip-rule="evenodd" d="M12 11.25C12.4142 11.25 12.75 11.5858 12.75 12V17C12.75 17.4142 12.4142 17.75 12 17.75C11.5858 17.75 11.25 17.4142 11.25 17V12C11.25 11.5858 11.5858 11.25 12 11.25Z"/>
</symbol><symbol id="icon-instagram" viewBox="0 0 511 511.9"><path d="M510.95 150.5c-1.2-27.2-5.598-45.898-11.9-62.102-6.5-17.199-16.5-32.597-29.6-45.398-12.802-13-28.302-23.102-45.302-29.5-16.296-6.3-34.898-10.7-62.097-11.898C334.648.3 325.949 0 256.449 0s-78.199.3-105.5 1.5c-27.199 1.2-45.898 5.602-62.097 11.898-17.204 6.5-32.602 16.5-45.403 29.602-13 12.8-23.097 28.3-29.5 45.3-6.3 16.302-10.699 34.9-11.898 62.098C.75 177.801.449 186.5.449 256s.301 78.2 1.5 105.5c1.2 27.2 5.602 45.898 11.903 62.102 6.5 17.199 16.597 32.597 29.597 45.398 12.801 13 28.301 23.102 45.301 29.5 16.3 6.3 34.898 10.7 62.102 11.898 27.296 1.204 36 1.5 105.5 1.5s78.199-.296 105.5-1.5c27.199-1.199 45.898-5.597 62.097-11.898a130.934 130.934 0 0074.903-74.898c6.296-16.301 10.699-34.903 11.898-62.102 1.2-27.3 1.5-36 1.5-105.5s-.102-78.2-1.3-105.5zm-46.098 209c-1.102 25-5.301 38.5-8.801 47.5-8.602 22.3-26.301 40-48.602 48.602-9 3.5-22.597 7.699-47.5 8.796-27 1.204-35.097 1.5-103.398 1.5s-76.5-.296-103.403-1.5c-25-1.097-38.5-5.296-47.5-8.796C94.551 451.5 84.45 445 76.25 436.5c-8.5-8.3-15-18.3-19.102-29.398-3.5-9-7.699-22.602-8.796-47.5-1.204-27-1.5-35.102-1.5-103.403s.296-76.5 1.5-103.398c1.097-25 5.296-38.5 8.796-47.5C61.25 94.199 67.75 84.1 76.352 75.898c8.296-8.5 18.296-15 29.398-19.097 9-3.5 22.602-7.7 47.5-8.801 27-1.2 35.102-1.5 103.398-1.5 68.403 0 76.5.3 103.403 1.5 25 1.102 38.5 5.3 47.5 8.8 11.097 4.098 21.199 10.598 29.398 19.098 8.5 8.301 15 18.301 19.102 29.403 3.5 9 7.699 22.597 8.8 47.5 1.2 27 1.5 35.097 1.5 103.398s-.3 76.301-1.5 103.301zm0 0"/><path d="M256.45 124.5c-72.598 0-131.5 58.898-131.5 131.5s58.902 131.5 131.5 131.5c72.6 0 131.5-58.898 131.5-131.5s-58.9-131.5-131.5-131.5zm0 216.8c-47.098 0-85.302-38.198-85.302-85.3s38.204-85.3 85.301-85.3c47.102 0 85.301 38.198 85.301 85.3s-38.2 85.3-85.3 85.3zm167.402-222c0 16.954-13.747 30.7-30.704 30.7-16.953 0-30.699-13.746-30.699-30.7 0-16.956 13.746-30.698 30.7-30.698 16.956 0 30.703 13.742 30.703 30.699zm0 0"/></symbol><symbol id="icon-like" viewBox="0 0 20 18">
    <title>Shape</title>
    <g id="Page-1" stroke="none" stroke-width="1" fill-rule="evenodd">
        <path d="M6.3,1.75 C3.65379,1.75 1.75,4.2754 1.75,6.76 C1.75,7.96848 2.22504,9.16658 3.00418,10.3138 C3.78263,11.4599 4.83662,12.5132 5.91982,13.4148 C7.00011,14.314 8.08869,15.0454 8.91731,15.5517 C9.33111,15.8046 9.67682,15.9993 9.92022,16.1291 C9.94839,16.1441 9.97499,16.1582 10,16.1713 C10.025,16.1582 10.0516,16.1441 10.0798,16.1291 C10.3232,15.9993 10.6689,15.8046 11.0827,15.5517 C11.9113,15.0454 12.9999,14.314 14.0802,13.4148 C15.1634,12.5132 16.2174,11.4599 16.9958,10.3138 C17.775,9.16658 18.25,7.96848 18.25,6.76 C18.25,4.2754 16.3462,1.75 13.7,1.75 C12.162,1.75 11.1633,2.50962 10.5679,3.19985 C10.4255,3.36503 10.2181,3.46 10,3.46 C9.78186,3.46 9.57453,3.36503 9.43206,3.19985 C8.83675,2.50962 7.83802,1.75 6.3,1.75 Z M0.25,6.76 C0.25,3.6846 2.60621,0.25 6.3,0.25 C7.96494,0.25 9.17771,0.915274 10,1.64403 C10.8223,0.915274 12.0351,0.25 13.7,0.25 C17.3938,0.25 19.75,3.6846 19.75,6.76 C19.75,8.36652 19.12,9.85592 18.2367,11.1565 C17.3526,12.4582 16.1866,13.6131 15.0398,14.5677 C13.8901,15.5247 12.7387,16.2977 11.8648,16.8317 C11.4274,17.099 11.0562,17.3084 10.7855,17.4527 C10.6508,17.5246 10.5373,17.5822 10.4508,17.6236 C10.4086,17.6438 10.3661,17.6633 10.3275,17.6793 C10.3092,17.6869 10.2824,17.6976 10.2523,17.7077 C10.2374,17.7127 10.213,17.7205 10.183,17.7278 L10.1825,17.7279 C10.1634,17.7326 10.092,17.75 10,17.75 C9.90799,17.75 9.83663,17.7326 9.81747,17.7279 L9.81702,17.7278 C9.78702,17.7205 9.76258,17.7127 9.74775,17.7077 C9.71756,17.6976 9.6908,17.6869 9.67247,17.6793 C9.63394,17.6633 9.59145,17.6438 9.54919,17.6236 C9.46268,17.5822 9.3492,17.5246 9.21447,17.4527 C8.94381,17.3084 8.57264,17.099 8.13519,16.8317 C7.26131,16.2977 6.10989,15.5247 4.96018,14.5677 C3.81338,13.6131 2.64737,12.4582 1.76332,11.1565 C0.879963,9.85592 0.25,8.36652 0.25,6.76 Z" id="Shape"/>
    </g>
</symbol><symbol id="icon-policy" viewBox="0 0 22.83 25.5"><g id="Layer_2" data-name="Layer 2"><g id="bag-question"><g id="policy"><path class="cls-1" d="M16.75,5.33H10.08a.75.75,0,0,0,0,1.5h6.67a.75.75,0,0,0,0-1.5Z"/><path class="cls-1" d="M16.75,10.67H10.08a.75.75,0,0,0,0,1.5h6.67a.75.75,0,0,0,0-1.5Z"/><path class="cls-1" d="M16.75,16H10.08a.75.75,0,1,0,0,1.5h6.67a.75.75,0,0,0,0-1.5Z"/><path class="cls-1" d="M19.71,0H3.12A3.12,3.12,0,0,0,0,3.12V22.75a2.08,2.08,0,0,0,3,1.86l1-.51a.59.59,0,0,1,.52,0l2.37,1.18a2.08,2.08,0,0,0,1.86,0l2.37-1.18a.59.59,0,0,1,.52,0L14,25.28a2.1,2.1,0,0,0,1.86,0l2.36-1.18a.62.62,0,0,1,.53,0l1,.51a2.08,2.08,0,0,0,3-1.86V3.12A3.12,3.12,0,0,0,19.71,0Zm1.62,22.75a.61.61,0,0,1-.27.5.59.59,0,0,1-.57,0l-1-.51a2.12,2.12,0,0,0-1.87,0l-2.36,1.18a.59.59,0,0,1-.52,0l-2.36-1.18a2.09,2.09,0,0,0-1.87,0L8.12,23.94a.59.59,0,0,1-.52,0L5.24,22.76a2.09,2.09,0,0,0-.94-.22,2,2,0,0,0-.93.22l-1,.51a.57.57,0,0,1-.56,0,.59.59,0,0,1-.28-.5V3.12A1.63,1.63,0,0,1,3.12,1.5H19.71a1.62,1.62,0,0,1,1.62,1.62Z"/><path class="cls-1" d="M5.92,5.17A.9.9,0,0,0,5,6.08a.92.92,0,1,0,.92-.91Zm.41,1.32a.58.58,0,1,1-.41-1,.58.58,0,0,1,.58.57A.59.59,0,0,1,6.33,6.49Z"/><path class="cls-1" d="M5.92,10.5a.91.91,0,0,0-.92.92.92.92,0,1,0,.92-.92Zm.41,1.33a.59.59,0,0,1-1-.41.6.6,0,0,1,.59-.59.59.59,0,0,1,.58.58A.63.63,0,0,1,6.33,11.83Z"/><path class="cls-1" d="M5.92,15.83a.91.91,0,0,0-.66.28.91.91,0,1,0,.66-.28Zm.41,1.33a.58.58,0,1,1,.17-.42A.59.59,0,0,1,6.33,17.16Z"/></g></g></g></symbol><symbol id="icon-product-question" viewBox="0 0 26.83 26.95"><g id="Layer_2" data-name="Layer 2"><g id="bag-question"><g id="product-question"><path class="cls-1" d="M12.75,22.79H7.3A5.8,5.8,0,0,1,1.5,17V7.3A5.8,5.8,0,0,1,7.3,1.5H18.2A5.8,5.8,0,0,1,24,7.3v5.57a.75.75,0,0,0,1.5,0V7.3A7.3,7.3,0,0,0,18.2,0H7.3A7.3,7.3,0,0,0,0,7.3V17a7.31,7.31,0,0,0,7.3,7.3h5.45a.75.75,0,0,0,0-1.5Z"/><path class="cls-1" d="M16.67,7.54a3.92,3.92,0,0,1-7.84,0,.75.75,0,0,0-1.5,0,5.42,5.42,0,0,0,10.84,0,.75.75,0,1,0-1.5,0Z"/><path class="cls-1" d="M25.34,18.17l-6.67-2a2.08,2.08,0,0,0-2.58,2.59l2,6.66A2.09,2.09,0,0,0,19.93,27h.12A2.1,2.1,0,0,0,22,25.68l1-2.32a.61.61,0,0,1,.31-.3l2.31-1a2.09,2.09,0,0,0-.22-3.92ZM25,20.71l-2.31,1a2,2,0,0,0-1.11,1.1l-1,2.32a.57.57,0,0,1-.57.35.58.58,0,0,1-.52-.41l-2-6.67a.6.6,0,0,1,.14-.58.58.58,0,0,1,.41-.17.47.47,0,0,1,.17,0l6.67,2a.58.58,0,0,1,.41.53A.59.59,0,0,1,25,20.71Z"/></g></g></g></symbol><symbol id="icon-question" viewBox="0 0 26.83 26.95"><g id="Layer_2" data-name="Layer 2"><g id="bag-question"><path class="cls-1" d="M12.75,22.79H7.3A5.8,5.8,0,0,1,1.5,17V7.3A5.8,5.8,0,0,1,7.3,1.5H18.2A5.8,5.8,0,0,1,24,7.3v5.57a.75.75,0,0,0,1.5,0V7.3A7.3,7.3,0,0,0,18.2,0H7.3A7.3,7.3,0,0,0,0,7.3V17a7.31,7.31,0,0,0,7.3,7.3h5.45a.75.75,0,0,0,0-1.5Z"/><path class="cls-1" d="M16.67,7.54a3.92,3.92,0,0,1-7.84,0,.75.75,0,0,0-1.5,0,5.42,5.42,0,0,0,10.84,0,.75.75,0,1,0-1.5,0Z"/><path class="cls-1" d="M25.34,18.17l-6.67-2a2.08,2.08,0,0,0-2.58,2.59l2,6.66A2.09,2.09,0,0,0,19.93,27h.12A2.1,2.1,0,0,0,22,25.68l1-2.32a.61.61,0,0,1,.31-.3l2.31-1a2.09,2.09,0,0,0-.22-3.92ZM25,20.71l-2.31,1a2,2,0,0,0-1.11,1.1l-1,2.32a.57.57,0,0,1-.57.35.58.58,0,0,1-.52-.41l-2-6.67a.6.6,0,0,1,.14-.58.58.58,0,0,1,.41-.17.47.47,0,0,1,.17,0l6.67,2a.58.58,0,0,1,.41.53A.59.59,0,0,1,25,20.71Z"/></g></g></symbol><symbol id="icon-reddit" viewBox="-21 -56 682.667 682"><path d="M429.93 388.258c-27.567 0-50.043-22.473-50.043-50.043 0-27.567 22.476-50.043 50.043-50.043 27.57 0 50.047 22.476 50.047 50.043 0 27.57-22.477 50.043-50.047 50.043m8.84 82.129c-34.196 34.097-99.61 36.789-118.817 36.789-19.21 0-84.719-2.692-118.82-36.79a12.939 12.939 0 010-18.347 12.937 12.937 0 0118.351 0c21.512 21.52 67.524 29.203 100.47 29.203 32.85 0 78.952-7.683 100.472-29.203a12.927 12.927 0 0118.344 0c4.996 5.094 4.996 13.258 0 18.348M159.734 338.219c0-27.567 22.477-50.043 50.047-50.043 27.567 0 50.043 22.476 50.043 50.043s-22.476 50.047-50.043 50.047c-27.57-.008-50.047-22.48-50.047-50.047M640 288.176c0-38.711-31.313-70.024-70.023-70.024-18.922 0-36.024 7.489-48.602 19.692-47.836-34.578-113.82-56.864-187.305-59.457l31.89-150.133 104.22 22.191c1.25 26.512 22.953 47.645 49.757 47.645 27.66 0 50.043-22.383 50.043-50.047C569.98 20.383 547.598-2 519.937-2c-19.695 0-36.503 11.43-44.667 27.95L358.852 1.167c-3.266-.672-6.625-.09-9.414 1.73-2.782 1.825-4.708 4.61-5.375 7.875 0 0-34.965 166.559-34.965 167.52-74.825 1.918-142.063 24.3-190.664 59.36-12.582-12.102-29.586-19.5-48.41-19.5C31.312 218.152 0 249.558 0 288.175c0 28.43 17 52.926 41.398 63.87a140.986 140.986 0 00-1.632 21.231c0 107.77 125.445 195.086 280.187 195.086 154.738 0 280.184-87.316 280.184-195.086 0-7.109-.574-14.12-1.63-21.035C622.81 341.293 640 316.801 640 288.176"/></symbol><symbol id="icon-truck" viewBox="0 0 24 24">
<path fill-rule="evenodd" clip-rule="evenodd" d="M2.99651 4.74707C2.85821 4.74707 2.74609 4.85919 2.74609 4.99749V13.251H14.2515V4.99749C14.2515 4.85919 14.1394 4.74707 14.0011 4.74707H2.99651ZM14.9816 14.751C14.9882 14.7512 14.9948 14.7512 15.0015 14.7512C15.4157 14.7512 15.7515 14.4155 15.7515 14.0012V14.001V6.74805H18.6489C19.1603 6.74805 19.6202 7.0594 19.8102 7.53423L20.0962 8.24902H18.0029C17.5887 8.24902 17.2529 8.58481 17.2529 8.99902V12.5005C17.2529 13.191 17.8127 13.7507 18.5031 13.7507H21.2549V17.5028C21.2549 17.6411 21.1428 17.7533 21.0045 17.7533H19.6192C19.5095 17.4444 19.3315 17.1574 19.0901 16.916L15.9073 16.916L19.0892 16.9151C18.6672 16.4936 18.0952 16.2568 17.4987 16.2568C16.9018 16.2568 16.3294 16.4939 15.9073 16.916C15.666 17.1573 15.4881 17.4442 15.3784 17.7529H8.61422C8.50443 17.4442 8.32652 17.1574 8.0852 16.9161L8.08127 16.9122C7.65968 16.4926 7.08903 16.2569 6.49405 16.2568C5.89718 16.2568 5.32473 16.4939 4.90267 16.9159L4.9026 16.9158L4.89758 16.921C4.65872 17.1613 4.48246 17.4465 4.37342 17.7531H2.99651C2.85821 17.7531 2.74609 17.641 2.74609 17.5027V14.751H14.9816ZM1.24609 14.001V4.99749C1.24609 4.03076 2.02978 3.24707 2.99651 3.24707H14.0011C14.9678 3.24707 15.7515 4.03076 15.7515 4.99749V5.24805H18.6489C19.7736 5.24805 20.7851 5.93277 21.2029 6.97703L21.8916 8.69853C21.898 8.71308 21.9039 8.72786 21.9094 8.74287L22.5581 10.3644C22.6881 10.6892 22.7549 11.0358 22.7549 11.3857V17.5028C22.7549 18.4696 21.9712 19.2533 21.0045 19.2533H19.6222C19.6086 19.292 19.5939 19.3304 19.5781 19.3687C19.2297 20.2097 18.4091 20.7581 17.4988 20.7581C16.5885 20.7582 15.7678 20.2099 15.4194 19.3689C15.4035 19.3305 15.3888 19.2918 15.3751 19.2529H8.6175C8.60386 19.2918 8.58909 19.3304 8.57321 19.3688C8.2249 20.2098 7.40426 20.7582 6.49397 20.7582C5.58368 20.7583 4.76299 20.21 4.41459 19.369C4.3987 19.3306 4.38392 19.292 4.37027 19.2531H2.99651C2.02978 19.2531 1.24609 18.4694 1.24609 17.5027V14.001ZM5.74734 18.5031C5.74734 18.5227 5.74659 18.5421 5.74512 18.5613C5.75077 18.6403 5.769 18.7191 5.80038 18.7949C5.91658 19.0754 6.19029 19.2582 6.49389 19.2582C6.79749 19.2582 7.07119 19.0753 7.18736 18.7948C7.30352 18.5143 7.23929 18.1915 7.0246 17.9768L7.02447 17.9767L7.02446 17.9767C6.88376 17.8359 6.69292 17.7569 6.49391 17.7568C6.29661 17.7568 6.10731 17.8345 5.96694 17.973L5.96313 17.9769L5.96306 17.9769C5.83376 18.1062 5.75905 18.2747 5.74546 18.4496C5.74671 18.4673 5.74734 18.4851 5.74734 18.5031ZM16.8052 18.7948C16.7738 18.719 16.7556 18.6401 16.75 18.5611C16.7515 18.5419 16.7522 18.5225 16.7522 18.5029C16.7522 18.485 16.7516 18.4672 16.7503 18.4496C16.7639 18.2746 16.8387 18.106 16.968 17.9767L17.4987 19.2581C17.1951 19.2581 16.9214 19.0753 16.8052 18.7948ZM17.4987 17.7568C17.6978 17.7568 17.8887 17.8359 18.0294 17.9767C18.2441 18.1914 18.3084 18.5142 18.1922 18.7947C18.076 19.0752 17.8023 19.2581 17.4987 19.2581L17.4987 17.7568ZM17.4987 17.7568C17.2996 17.7568 17.1087 17.8359 16.968 17.9767L17.4987 17.7568ZM20.6963 9.74902H18.7529V12.2507H21.2549V11.3857C21.2549 11.2267 21.2245 11.0692 21.1655 10.9216L20.6963 9.74902Z"/>
</symbol><symbol id="icon-twitter" viewBox="-21 -81 681.335 681"><path d="M200.965 515.293c241.05 0 372.87-199.703 372.87-372.871 0-5.672-.116-11.32-.37-16.938a266.692 266.692 0 0065.37-67.863c-23.48 10.441-48.753 17.461-75.257 20.637 27.055-16.23 47.828-41.895 57.625-72.488a262.838 262.838 0 01-83.215 31.808c-23.914-25.473-57.965-41.402-95.664-41.402-72.367 0-131.058 58.687-131.058 131.031 0 10.29 1.152 20.29 3.398 29.883C205.746 151.61 109.16 99.465 44.531 20.168 33.281 39.531 26.79 62.031 26.79 86.039c0 45.461 23.137 85.606 58.316 109.082-21.5-.66-41.695-6.562-59.351-16.387-.02.551-.02 1.086-.02 1.672 0 63.469 45.172 116.461 105.145 128.469a131.531 131.531 0 01-34.559 4.61c-8.43 0-16.648-.829-24.632-2.364 16.683 52.07 65.066 89.961 122.425 91.024-44.855 35.156-101.36 56.097-162.77 56.097-10.562 0-21.003-.605-31.261-1.816 58 37.176 126.871 58.87 200.887 58.87"/></symbol><symbol id="icon-youtube" viewBox="-21 -117 682.667 682"><path d="M626.813 64.035c-7.375-27.418-28.993-49.031-56.407-56.414C520.324-6.082 319.992-6.082 319.992-6.082s-200.324 0-250.406 13.184c-26.887 7.375-49.031 29.52-56.406 56.933C0 114.113 0 217.97 0 217.97s0 104.379 13.18 153.933c7.382 27.414 28.992 49.028 56.41 56.41C120.195 442.02 320 442.02 320 442.02s200.324 0 250.406-13.184c27.418-7.379 49.032-28.992 56.414-56.406 13.176-50.082 13.176-153.934 13.176-153.934s.527-104.383-13.183-154.46zM256.21 313.915V122.022l166.586 95.946zm0 0"/></symbol></svg>