<svg xmlns="http://www.w3.org/2000/svg" width="41" height="40" viewBox="0 0 41 40">
  <defs>
    <linearGradient id="vvs-a" x1="80.327%" x2="18.769%" y1="92.988%" y2="11.654%">
      <stop offset="0%" stop-color="#F5DE7B"/>
      <stop offset="53.455%" stop-color="#AC9B52"/>
      <stop offset="100%" stop-color="#F4DD7A"/>
    </linearGradient>
  </defs>
  <path fill="url(#vvs-a)" fill-rule="evenodd" d="M59.2680435,8.0015321 C60.4554981,8.01590099 61.6403988,8.13113217 62.7671565,8.34683008 C70.1670539,9.76337315 76.1431728,15.203692 78.2495371,22.4405852 C78.4905548,23.268599 78.742977,24.5040264 78.8865903,25.5504404 C79.0384081,26.6549833 79.0376392,29.3323538 78.885257,30.4324433 C78.2466437,35.0451572 76.329355,38.9608484 73.1499323,42.1349392 C69.9279766,45.3514301 65.9959428,47.2792979 61.445058,47.8746316 L61.445058,47.8746316 C60.6979047,47.9716094 58.2903814,48.0357428 57.5324917,47.9782761 L57.5324917,47.9782761 L57.5069584,47.9782761 L57.5069584,47.9782761 L57.28191,47.9572009 C56.5538218,47.881152 55.374324,47.6951159 54.6871449,47.5454758 C49.5553068,46.4288085 45.0138326,43.2419177 42.1212605,38.7323594 C39.9739082,35.3845796 38.902779,31.504444 39.006931,27.4582638 C39.1030826,23.7229682 40.1776993,20.2477483 42.2077338,17.107422 C42.9753084,15.920048 43.641899,15.0925052 44.6853246,14.0305446 C47.7500861,10.9113694 51.4755599,8.96922601 55.752527,8.26190114 C56.8906482,8.07368325 58.080669,7.98717653 59.2681231,8.0015321 Z M64.6718545,42.4399616 C64.6437006,42.4680394 64.6151598,42.4965061 64.585609,42.5260061 L64.2755639,42.8368063 C63.8529808,43.2623177 63.2836133,43.8389847 62.6907156,44.4414295 C61.5821917,45.5676969 60.4875256,46.6883198 60.0233745,47.1732978 C60.1677883,47.1644089 60.2155607,47.16352 60.3708283,47.1519645 C62.295529,47.0059199 64.0642039,46.6149419 65.8190468,45.9484082 L65.8190468,45.9484082 L66.1938708,45.8062303 C66.1177619,45.6374747 65.7824815,44.8984076 65.4389264,44.141296 C65.1008118,43.3961844 64.771422,42.6655173 64.6718545,42.4400505 L64.6718545,42.4400505 Z M53.0721246,42.3600949 C53.0335473,42.449295 53.0004957,42.5244061 52.9523642,42.6388062 C52.7908922,43.0226731 52.5836985,43.5279179 52.380946,44.031207 C52.1781998,44.5344962 51.9796923,45.0363188 51.8350368,45.4124079 C51.7789381,45.5582302 51.7400981,45.6634302 51.7034625,45.763297 C51.8360492,45.8153414 52.0045612,45.8793415 52.1924434,45.9484082 C52.5909282,46.0948972 53.0546091,46.2573862 53.3194166,46.3400084 C54.4744787,46.7004086 55.8694203,46.9837866 57.0241362,47.0931644 C57.6386375,47.1512089 57.7502148,47.1507645 57.9638477,47.1618756 L57.9638477,47.1618756 L56.210095,45.4232968 L55.6672946,44.8853853 C54.8740671,44.0989849 54.1482365,43.3888067 53.6189677,42.8793397 C53.3889033,42.6578284 53.2163553,42.4946728 53.0721246,42.3600949 Z M58.8444627,39.2496486 C58.7891671,39.2698264 58.7104654,39.3006709 58.6139676,39.3420042 C58.4136965,39.4269821 58.1451401,39.5488932 57.862445,39.6848044 C57.2889633,39.9605824 56.0232381,40.5682716 55.0492209,41.0355164 C54.5635769,41.2685387 54.121761,41.4844944 53.8031143,41.6440056 C53.7422023,41.6748945 53.7113574,41.6908945 53.6600263,41.7171168 C53.805021,41.8645835 53.9872023,42.0489836 54.2267747,42.2891616 C54.7576178,42.8212952 55.4906257,43.5508956 56.2968816,44.3488072 L56.2968816,44.3488072 L59.0027867,47.0268977 L59.8843355,46.1297861 C60.4920909,45.5110746 61.7483984,44.2312516 62.6757863,43.2855622 C63.1388275,42.8133841 63.5596275,42.3795616 63.864031,42.0620503 C63.9553172,41.9668947 64.0114555,41.9073391 64.0795968,41.8352946 C63.9379652,41.7619168 63.7826386,41.6819612 63.5713239,41.5749389 C63.0472991,41.309561 62.3455605,40.9591163 61.6396424,40.6093383 L61.3373339,40.4597189 C60.7341761,40.1615512 60.1458246,39.8728109 59.6812106,39.6475155 C59.4101857,39.5160932 59.1811929,39.4062709 59.0170955,39.3292931 C58.9437489,39.2947153 58.8886093,39.2692042 58.8444627,39.2496486 Z M71.9817586,42.1152948 L65.421,42.115 L65.5065986,42.3082058 C65.6929925,42.7293669 65.9404618,43.2770688 66.2009226,43.8428051 L66.332013,44.1266738 C66.5318267,44.5580963 66.7201401,44.9605854 66.8601912,45.2540522 C66.9029414,45.3436523 66.9306303,45.3992079 66.9631547,45.4658746 C67.0634858,45.4202301 67.1740053,45.3692967 67.3028302,45.3072523 L67.3028302,45.3072523 C68.9828398,44.4980073 70.7271032,43.3013399 71.9817586,42.1152948 L71.9817586,42.1152948 Z M50.069583,42.0038418 L48.9655113,42.0036058 L48.9655113,42.0048947 L45.9081036,42.0048947 C47.1955301,43.245651 48.7908602,44.3528517 50.6178613,45.2653856 C50.7342649,45.3235189 50.8340346,45.3689856 50.9248769,45.410319 C50.9930444,45.24903 52.0014656,42.810673 52.3246447,42.026717 C52.2265598,42.0231614 52.1714798,42.0160503 52.0226056,42.0160503 C51.6045666,42.0069243 50.9768845,42.0044908 50.069583,42.0038418 Z M65.418714,42.1086726 L65.418714,42.1152948 L65.421,42.115 L65.418714,42.1086726 Z M72.528,34.121 L72.4179213,34.156072 C72.3043781,34.1917011 72.1794268,34.2310678 72.0178355,34.2825345 C71.4565009,34.4613346 70.6833227,34.7104015 69.8341988,34.9862238 L69.8341988,34.9862238 L66.9049498,35.9374689 L66.4884401,37.3693364 C66.2332392,38.2465369 65.8470913,39.5637821 65.6299122,40.2981381 C65.5216655,40.6641828 65.4233326,41.0018719 65.3521411,41.2500498 C65.34803,41.2638276 65.3467144,41.2696054 65.3428033,41.2833832 C65.5391562,41.2878276 65.7840122,41.2949387 66.1077006,41.2949387 C66.8308996,41.3007165 67.8303017,41.3073832 68.9293234,41.3073832 L72.6072994,41.3073832 L72.5709217,37.6711588 C72.560015,36.5829804 72.5489128,35.5917798 72.5395083,34.8720904 C72.5353305,34.5555125 72.5318461,34.3173346 72.5286017,34.1208455 L72.528,34.121 Z M45.4831477,34.0746677 C45.4801432,34.268579 45.4768054,34.4985791 45.4728943,34.8072904 C45.4638188,35.5216464 45.4525877,36.5053359 45.4418099,37.585781 L45.4418099,37.585781 L45.4060232,41.1936942 L49.6323011,41.1930456 C50.4168531,41.1915433 51.1203264,41.187472 51.6626794,41.1812498 C51.9652474,41.1781387 52.1899696,41.1763609 52.3774927,41.1696942 C52.3358003,41.0328497 52.2927629,40.8920941 52.2309825,40.691605 C52.068707,40.1650714 51.8448474,39.444271 51.5985999,38.6564927 C51.1973657,37.3729808 50.9690128,36.6539582 50.8299737,36.2606246 C50.7604542,36.0638689 50.7116293,35.9475133 50.6856382,35.8978688 C50.6716604,35.8947577 50.6787138,35.8952022 50.6601671,35.888091 C50.6121338,35.8701355 50.5447627,35.8454688 50.4617053,35.8152466 C50.2955965,35.7549799 50.0666294,35.672802 49.7966627,35.5770242 C49.256729,35.3852907 48.5524562,35.1380462 47.8534736,34.8938682 C47.1544844,34.6496903 46.4605893,34.4087568 45.9410769,34.2303567 C45.7512356,34.1651122 45.6179045,34.1201789 45.4831957,34.07449 Z M65.9649299,36.2461802 C65.8064362,36.3077802 65.6886286,36.3504913 65.4361313,36.4558247 C64.8039838,36.7195582 63.9808981,37.0628473 63.6067857,37.2189363 C63.2320209,37.3752031 62.4922081,37.6823143 61.9619006,37.9016923 C61.2214611,38.208048 60.5424358,38.4916482 60.0460821,38.7011594 C59.9578714,38.7385372 59.9117777,38.7587594 59.8358057,38.7907595 C59.9276866,38.837515 59.9891537,38.8690262 60.0983408,38.9245373 C60.4681941,39.111712 60.9277979,39.3426736 61.414192,39.5861619 L62.0066948,39.8823601 C62.7035418,40.2303159 63.4036022,40.578005 63.9337137,40.8392496 C64.176395,40.9588496 64.3703705,41.0537386 64.5247238,41.1284942 C64.5729665,40.9784497 64.6288496,40.7991162 64.6908261,40.5866272 C64.8778007,39.9457379 65.6859704,37.1931141 65.9649299,36.2461802 Z M51.7267901,36.3180469 C51.7551399,36.4086247 51.7742759,36.4689803 51.8079736,36.576847 C51.9700527,37.095514 52.18987,37.8013366 52.428542,38.5692927 C52.6670438,39.3367598 52.8856202,40.0343158 53.0453748,40.5396494 C53.1091668,40.7415162 53.1549659,40.8848496 53.1974815,41.0171608 C53.3186788,40.9599608 53.4498677,40.8977829 53.6090081,40.8215162 C54.0079241,40.6303161 54.5893018,40.3522271 54.9014635,40.2033825 C55.2114306,40.0556047 55.9003368,39.7234711 56.4297034,39.4667599 C56.9252415,39.2264042 57.5078988,38.9471596 57.8288512,38.7954706 C57.6610379,38.7262261 57.5039215,38.6612483 57.2991117,38.5780038 C56.6748016,38.3242258 56.0598692,38.0717368 55.9040137,38.004359 C55.2660146,37.7284477 54.060013,37.2373363 53.0207997,36.8240916 C52.5205531,36.625247 52.0689932,36.4489358 51.7267901,36.3180469 Z M73.3438731,34.1973789 L73.3724776,35.8899577 C73.3932465,37.1191585 73.4116153,38.8779595 73.4129042,39.8048934 L73.4129042,39.8048934 L73.4141931,40.6591606 C73.6253704,40.4208493 73.8902433,40.1150269 74.0832797,39.8689823 C74.6601241,39.1337819 75.4501196,37.9376034 75.8678351,37.1681807 C76.0419951,36.8473361 76.2440395,36.4495136 76.3972572,36.1325801 C76.4531772,36.0169356 76.4918572,35.9312466 76.5307017,35.8458244 C76.4841639,35.8216021 76.4509461,35.8048021 76.3932128,35.7745799 C76.1544751,35.6514687 75.8270662,35.4831575 75.4687418,35.2995574 C74.7507419,34.9316016 73.8743802,34.4776902 73.5146616,34.2876456 L73.5146616,34.2876456 L73.3438731,34.1973789 Z M44.6589966,34.1686234 L44.5784335,34.2117345 C43.0698381,35.0234239 42.2430036,35.4702241 41.7997307,35.7192465 C41.6407734,35.8085799 41.5796067,35.8473799 41.5092054,35.8909355 C41.520441,35.9154688 41.5261876,35.9296911 41.5393787,35.9572466 C41.6164605,36.1193356 41.7250925,36.3368469 41.8445263,36.5694248 C42.0834005,37.034714 42.3689693,37.5655587 42.5353915,37.8429811 C42.9650995,38.5591149 43.5107736,39.3484487 43.9718687,39.9228935 C44.1419416,40.1347603 44.3771451,40.4074715 44.5890082,40.6498717 C44.5909904,40.5224938 44.5922793,40.4376493 44.5942349,40.2830715 C44.6035726,39.5743155 44.6146749,38.5984482 44.6253193,37.5269365 L44.6253193,37.5269365 L44.6589966,34.1686234 Z M58.892,17.593 L58.8766387,17.5993847 C58.852823,17.6069765 58.8081773,17.621355 58.7346422,17.6492046 C58.5487391,17.7196357 58.2219156,17.8530758 57.6540241,18.087827 C57.1387833,18.3008227 53.3925806,19.8331703 51.9062612,20.4389662 L51.9062612,20.4389662 L51.439047,20.6293441 L49.8734841,24.2776485 C49.4289379,25.3135469 49.0247388,26.2616675 48.7318949,26.9541746 C48.5854695,27.3004415 48.4670024,27.5829305 48.3853682,27.7798195 C48.3493776,27.8667085 48.3234509,27.9295085 48.3029442,27.9804419 C48.3116954,28.0034641 48.317962,28.019153 48.3299798,28.0498197 C48.3745127,28.1624864 48.4398918,28.324131 48.5206633,28.52142 C48.6821944,28.9160424 48.9054602,29.4538205 49.1511784,30.0382209 C49.6433592,31.2088438 50.3398276,32.8685781 50.6990107,33.7272898 C50.8778346,34.1548456 51.0473328,34.5507125 51.1758706,34.8418682 C51.2401328,34.9874683 51.2944764,35.1068906 51.3332675,35.1893351 C51.3433919,35.211024 51.3488097,35.2221351 51.356583,35.2376907 C51.3882697,35.2527129 51.425423,35.2695129 51.4903386,35.2984018 C51.6488977,35.3681796 51.9106816,35.4789352 52.3236647,35.6502687 C53.1496437,35.9928911 54.5814645,36.5785804 57.0262713,37.5764476 L57.0262713,37.5764476 L58.8291738,38.3124481 L59.505103,38.0337368 C59.8994525,37.8711208 61.356102,37.2654451 62.8735058,36.6333075 L63.3535373,36.4332914 L66.2868352,35.211024 L67.6197222,32.0738221 C68.3807337,30.282621 69.100758,28.5887089 69.2216811,28.3056865 L69.2216811,28.3056865 L69.3880967,27.916264 L69.3349367,27.7834195 C69.2836118,27.6552861 68.5858567,25.9380495 67.7945626,23.9928884 L67.7945626,23.9928884 L66.4069285,20.581633 L62.7099809,19.1012099 C61.6593126,18.6805074 60.694634,18.2971383 59.9872723,18.0186581 C59.633595,17.879418 59.344088,17.7664135 59.141192,17.688289 C59.0397435,17.649249 58.9599907,17.6188356 58.90572,17.5987023 L58.90572,17.5987023 L58.892,17.593 Z M39.8349736,28.9692869 C39.9413985,30.579199 40.1899967,32.0783999 40.572494,33.3514673 C40.7183317,33.8368009 40.8939099,34.3604457 41.0390815,34.7578681 C41.0944552,34.9093794 41.1385419,35.0180016 41.1809286,35.1220906 C41.2630752,35.0783572 41.3590784,35.0267128 41.4646189,34.9695183 L41.8055329,34.7836459 C43.0441488,34.1046233 43.1925266,34.0239122 43.8311589,33.6827564 C44.117962,33.5295563 44.2421371,33.4605785 44.3705375,33.3890673 C44.2464669,33.2637339 44.0957051,33.1135561 43.9194998,32.9424004 C43.098863,32.1452888 41.6954574,30.7806658 40.362218,29.4828872 C40.1256496,29.2526204 39.9810265,29.1110203 39.8349736,28.9692869 Z M78.1762171,28.9986202 C77.7877415,29.3702205 76.5551595,30.5719545 74.4910886,32.6015113 C74.1841375,32.9032893 73.9050486,33.1813783 73.703798,33.3851118 C73.6845326,33.4048007 73.6764349,33.4132451 73.6586704,33.4314674 C73.6825055,33.4443562 73.6934122,33.4510229 73.7193411,33.4648007 C73.9762922,33.6023119 74.3331508,33.7889787 74.7253063,33.9902232 C75.5132973,34.3944902 76.3565106,34.8318237 76.614995,34.9707127 C76.6979817,35.015335 76.7676128,35.0494239 76.8386483,35.084535 C76.8885994,34.9685794 76.9455105,34.830846 77.0050705,34.6655125 C77.7099416,32.7096447 78.0427815,31.0856437 78.1762171,28.9986202 Z M69.8802388,28.8675979 C69.8720468,28.8854646 69.8670202,28.8925757 69.8590513,28.9116869 C69.5104611,29.7253318 68.8309723,31.3212439 68.2328306,32.7288892 C67.9337564,33.4327562 67.6549733,34.0896011 67.4480275,34.5783569 C67.415792,34.6544681 67.3890765,34.7176348 67.3642974,34.7762626 L67.2921853,34.9469349 C67.4832938,34.8853349 67.6762435,34.8233793 67.9161693,34.7444015 L67.9161693,34.7444015 L67.9646924,34.727957 C68.6342239,34.5081347 69.9299704,34.0853344 70.8961641,33.7719564 C71.3868756,33.6128897 71.834452,33.4669785 72.1600017,33.360134 C72.2349155,33.3351562 72.2769275,33.3213784 72.3379243,33.3013784 C72.265603,33.1674228 72.1847204,33.0181338 72.0750826,32.8179114 C71.8078128,32.3298667 71.4484996,31.6791552 71.0868414,31.0271104 L70.9319499,30.7480022 C70.6228982,30.1914817 70.3213639,29.6507794 70.0836775,29.2274648 C70.0005544,29.0794647 69.945285,28.982398 69.8802388,28.8675979 L69.8802388,28.8675979 Z M47.812415,28.9759536 C47.7804536,29.0371981 47.762431,29.0704425 47.7262487,29.1402203 C47.4851479,29.6048428 47.1544844,30.2496432 46.7933813,30.9612881 C46.4322524,31.6728885 46.1059449,32.3220445 45.8717081,32.7935114 C45.7768885,32.9843115 45.7099747,33.1212449 45.6493041,33.2457784 C45.7488325,33.2815562 45.8426201,33.3156006 45.9830698,33.3652451 C46.3864458,33.5085785 46.9407862,33.7040009 47.5483194,33.916801 C48.7626282,34.3420901 49.9923881,34.7747126 50.2956027,34.8833349 C50.2204147,34.6997348 50.1436005,34.5120458 50.0464432,34.2814234 C49.7847245,33.6600897 49.4425019,32.8458226 49.2855948,32.4706223 C48.8829957,31.5078662 48.4535029,30.4869323 48.1225394,29.705154 C47.9963136,29.4069316 47.9029114,29.1879981 47.812415,28.9759536 Z M73.0453207,23.0511722 C72.9474385,23.2160834 72.8268683,23.4235147 72.6925772,23.6621593 C72.398375,24.1849107 71.8981675,25.0720934 71.5808533,25.6340982 C71.0620596,26.5528943 70.7277521,27.1536858 70.5282254,27.5291527 C70.4284557,27.7168861 70.3620837,27.8493307 70.3260348,27.9295085 C70.3253681,27.9361752 70.3254126,27.9361752 70.3247459,27.9361752 C70.3453957,27.9760419 70.3677303,28.0197752 70.4006459,28.0811975 C70.4827041,28.2347976 70.5993232,28.4495977 70.7387672,28.703909 C71.0176614,29.2126204 71.3878684,29.8801319 71.7581075,30.5436878 C72.128347,31.2071994 72.4987043,31.8670664 72.7786954,32.3600445 C72.8917683,32.5591113 72.9764394,32.7056447 73.0536714,32.839067 C73.1925669,32.7067114 73.3652585,32.5411557 73.5908753,32.3229778 C74.0927464,31.8377331 74.7808041,31.1676882 75.5331285,30.4307544 L75.5331285,30.4307544 L78.0390304,27.9756863 L75.5309551,25.493947 C74.7783152,24.7491421 74.0903464,24.0720617 73.588694,23.5817014 C73.3605958,23.3587324 73.1847691,23.1880079 73.0455865,23.0537945 L73.0455865,23.0537945 Z M44.892497,23.1690701 C44.7471104,23.3071368 44.5582682,23.4889636 44.2588673,23.7803816 C43.5913887,24.4299642 42.5003151,25.5006093 40.7911739,27.1813747 L40.7911739,27.1813747 L39.9849047,27.9743085 L40.8026143,28.7748379 C41.7672736,29.717586 42.7921285,30.7120435 43.6137305,31.504444 C44.0832171,31.9571998 44.4865478,32.3440445 44.7736708,32.6168446 C44.8451824,32.6848002 44.8850393,32.7219558 44.9413339,32.7748892 C45.0056095,32.6540447 45.069865,32.5330224 45.1621899,32.3555556 C45.4114085,31.8763553 45.7504636,31.2138216 46.1186983,30.4853323 L46.1186983,30.4853323 L47.3859514,27.9787085 L46.7846746,26.8183923 C46.4123716,26.0998407 45.7970605,24.9061467 45.416633,24.1642129 C45.2275166,23.7953994 45.0509455,23.4599014 44.920181,23.2188968 C44.908621,23.1973545 44.9033322,23.1888657 44.8924922,23.1692656 Z M50.36716,21.0330155 C50.2741756,21.0645488 50.21216,21.0848644 50.1027574,21.1222866 C49.5680419,21.3051267 48.8557953,21.5517713 48.1427714,21.8007493 C47.4297479,22.0497316 46.7159466,22.3009051 46.178116,22.4925675 C45.933828,22.5796253 45.7402707,22.6491853 45.5858583,22.7060076 C45.6294574,22.7935232 45.670921,22.8777721 45.7283258,22.9862522 C45.9005605,23.3117679 46.2755609,24.0341017 46.5644538,24.5970221 C47.1072804,25.6547338 47.4927821,26.4007165 47.7439927,26.8782101 C47.7729879,26.9332635 47.7825879,26.9495968 47.808059,26.9979079 C47.8353314,26.9352901 47.8510692,26.8997612 47.8820914,26.8283745 C48.0821078,26.3680631 48.3558425,25.7351338 48.6544531,25.0412668 C49.516449,23.0381767 50.0113925,21.8837626 50.286584,21.2296156 C50.3284849,21.1300466 50.3349516,21.1106244 50.36716,21.0330155 Z M67.4564324,20.9636999 C67.5637844,21.2412823 67.6949146,21.5744025 67.8517955,21.9603982 C68.2058648,22.8315765 68.8611438,24.4444397 69.3081718,25.5446715 C69.5312349,26.0936096 69.7376708,26.5926499 69.8898562,26.9528857 C69.8936428,26.9626635 69.8956117,26.9657746 69.8995228,26.9751079 C69.926325,26.927059 69.9457886,26.8954501 69.9738686,26.8438545 C70.1749495,26.4764143 70.4470125,25.986454 70.5823028,25.748525 C70.9041694,25.182538 71.3902769,24.3114174 71.7938817,23.5818881 C71.9956808,23.2171279 72.1768755,22.8875055 72.3065039,22.6492476 C72.3210683,22.6224742 72.3274683,22.6100742 72.3407261,22.5858964 C72.185347,22.5321453 71.9998684,22.4683986 71.7602889,22.3874474 C71.2120485,22.2021184 70.4841214,21.959056 69.7570633,21.718007 C69.0300047,21.4769535 68.3034168,21.2379 67.7581933,21.0606955 C67.6332804,21.0201355 67.5601364,20.9970154 67.4564324,20.9636377 Z M41.071121,21.1531311 C41.0697006,21.1572155 41.0690339,21.1585044 41.0670783,21.1630822 C40.9976241,21.3452823 40.9069193,21.603358 40.8129419,21.8854115 C40.6249944,22.4494697 40.4212753,23.1179278 40.333914,23.4830836 C40.0835851,24.5293687 39.9126176,25.7504939 39.8362145,26.9600412 C40.1160233,26.6910989 40.5349362,26.2864364 41.1547992,25.6777383 C42.4709042,24.3854471 43.2993306,23.5702855 43.8100399,23.0631317 L44.0665786,22.8073657 C44.1606004,22.712763 44.2113395,22.6598769 44.2797082,22.5900208 C44.2016207,22.5541008 44.1405518,22.5258119 44.0436096,22.4814119 C43.6803581,22.3158696 43.2006835,22.0996561 42.7219164,21.8851004 C42.2431498,21.6705403 41.7648858,21.4573846 41.4039592,21.2984023 C41.2667943,21.2379889 41.1676254,21.1949089 41.071121,21.1531311 L41.071121,21.1531311 Z M76.9515639,21.1300644 C76.9199283,21.1423355 76.8998928,21.1496689 76.862915,21.1642911 C76.6695417,21.24094 76.409355,21.3476868 76.1316128,21.4651002 C75.5720129,21.7016692 74.8083063,22.0233627 74.433533,22.1805806 C74.1304175,22.3077407 73.8647211,22.4216785 73.6779686,22.5022341 L73.6779686,22.5022341 L76.0298973,24.83312 C76.7681194,25.5648671 77.4422927,26.2301253 77.9335815,26.7120544 C78.0367193,26.8132234 78.0931193,26.8676945 78.1790037,26.9515968 C78.0558082,25.0493645 77.7690438,23.5458392 77.2081861,21.8940782 C77.0814216,21.520718 77.0061594,21.295509 76.9515639,21.1300644 Z M61.5,23.0000106 C61.7761424,23.0000106 62,23.2238684 62,23.5000106 C62,23.7761535 61.7761424,24.0000106 61.5,24.0000106 C61.2238576,24.0000106 61,23.7761535 61,23.5000106 C61,23.2238684 61.2238576,23.0000106 61.5,23.0000106 Z M49.3251532,14.7049796 L45.4091632,14.7048339 L45.4096218,19.0697175 C45.4106675,19.8779405 45.4134155,20.6027481 45.4169725,21.1618911 C45.4188659,21.4703268 45.4214703,21.6983136 45.4240925,21.8916782 C45.5876414,21.8350693 45.7713765,21.7710959 45.98898,21.6941403 C46.5130635,21.5088069 47.6421852,21.11214 48.4998513,20.8122376 C49.6195561,20.4207129 50.2138516,20.212135 50.5276524,20.0955038 C50.6687422,20.0430504 50.738192,20.0137393 50.7799209,19.9947171 C50.7938978,19.9570104 50.8104844,19.9116504 50.8324933,19.8475792 C50.8841186,19.6972413 50.9550293,19.4818768 51.0396608,19.2188899 C51.2089173,18.6929207 51.4333128,17.9751292 51.6735972,17.1872354 C51.7457812,16.9505552 51.9719794,16.2192926 52.1778274,15.5574922 C52.2778976,15.2357542 52.3677278,14.9438118 52.4347589,14.7228695 C52.2453029,14.7194472 52.0182821,14.7168695 51.7131017,14.7142028 C51.0106644,14.7088695 50.0403303,14.7048339 48.9732895,14.7048339 Z M44.6000989,15.3331143 C43.7913012,16.2704615 43.0584306,17.248271 42.496508,18.1944182 C42.1214356,18.8259386 41.530197,19.9867926 41.371089,20.3862684 L41.371089,20.3862684 L41.4544534,20.4217351 C41.6756618,20.5158552 42.5493871,20.9093843 43.4281279,21.309869 C43.8668483,21.5098069 44.267338,21.6917803 44.55883,21.8237715 C44.5735855,21.8304826 44.5797277,21.8331143 44.5939633,21.8396382 C44.5952522,21.6539758 44.5965411,21.4556557 44.5972077,21.1748644 C44.5986398,20.7796568 44.5995788,20.300873 44.6000768,19.7681076 L44.6000989,15.3331143 Z M72.4897243,14.7048695 L68.5426507,14.7049661 C67.6082506,14.7054791 66.7659899,14.7080137 66.1367886,14.7120828 C65.829277,14.7139495 65.6004077,14.7165272 65.4092211,14.7191939 C65.4589917,14.8823273 65.5151429,15.0658963 65.5983442,15.3341987 C65.7999277,15.9843102 66.0971539,16.9346175 66.4786459,18.1494582 C66.6373356,18.6548274 66.788992,19.1222365 66.9047947,19.4656368 C66.962696,19.6373391 67.0116711,19.7782236 67.0472622,19.8753259 C67.0530756,19.8913259 67.0556845,19.8975926 67.0609111,19.9111037 C67.0998667,19.9257881 67.1378036,19.940277 67.1968413,19.9617882 C67.3592409,20.0209171 67.5908524,20.1032238 67.8677942,20.2003883 C68.4216905,20.3947129 69.1576891,20.648873 69.8962153,20.9015532 L70.2123819,21.0095891 C70.842973,21.2247824 71.4568255,21.4325452 71.9408133,21.5940158 C72.184135,21.6751981 72.3737479,21.7372248 72.5364932,21.7899937 C72.5377821,21.7213048 72.5399154,21.6790692 72.5404043,21.5927758 C72.5428843,21.2023934 72.538511,20.6401263 72.5273421,19.9667704 C72.5067066,18.7240141 72.4897634,16.9630619 72.4897243,16.0462391 L72.4897243,16.0462391 L72.4897243,14.7048695 Z M73.301658,15.2084698 L73.321578,16.5896617 C73.3391425,17.8216624 73.3533158,19.5889124 73.3533158,20.5229396 L73.3533158,21.7433003 C73.5819891,21.6500558 74.2557241,21.3696423 75.0650752,21.0287532 C75.509924,20.8413887 75.9283729,20.6669353 76.2446128,20.536313 C76.4027417,20.4710018 76.5352128,20.4166818 76.6334394,20.3770373 C76.6362394,20.3761484 76.6362394,20.3761484 76.6380172,20.375704 C76.574715,20.2163972 76.4068439,19.8525392 76.1925773,19.4337567 C75.9602084,18.9795653 75.6937329,18.4875073 75.5094885,18.1807338 C74.8974085,17.1616131 74.0781108,16.0775369 73.3018976,15.2086875 L73.301658,15.2084698 Z M53.2472197,14.8843584 C53.228213,14.9442252 53.2215553,14.9635674 53.1937331,15.0523452 C53.0604931,15.4770832 52.8162704,16.2633726 52.36569,17.7151779 C52.1597376,18.3787783 51.9695696,18.9868142 51.8291132,19.4323345 C51.8074985,19.5009212 51.7960008,19.5361035 51.7768674,19.5965791 C51.9160634,19.5411168 52.0315265,19.4954368 52.2154643,19.4214456 C52.8290966,19.1745832 53.6687446,18.833823 54.5857422,18.4589606 C56.2537074,17.7771157 57.5076441,17.2641199 57.8891948,17.1079509 C57.7150663,17.0229153 57.5563895,16.9452619 57.2863637,16.8149107 C56.508562,16.439466 55.3255942,15.8722968 53.6886437,15.0902919 C53.5172841,15.0084341 53.374549,14.9424207 53.2472522,14.8843584 Z M64.5953341,14.8870251 C64.4386359,14.9583585 64.2420159,15.0490741 63.9679279,15.1775764 C63.3534266,15.4656699 62.4567721,15.8913413 61.3257824,16.432466 C60.7165385,16.7239596 60.2250954,16.9573152 59.9101514,17.1059509 C60.0819745,17.1751243 60.248371,17.241991 60.4890345,17.3386444 C61.1617962,17.6088312 62.0742681,17.9749203 63.0639853,18.3711072 C64.7058794,19.0283787 65.6332935,19.3997123 66.0688272,19.5743613 C65.9424775,19.1622143 65.6394651,18.1917115 65.284018,17.0630264 C65.0825647,16.4233194 64.8851936,15.797559 64.7371812,15.3312476 C64.6786203,15.1467853 64.6354985,15.0125363 64.5953341,14.8870251 Z M58.8799116,17.589369 L58.8918672,17.593669 L58.8918672,17.593669 L58.892,17.593 C58.9046341,17.5899975 58.897315,17.5907461 58.8799116,17.589369 Z M59.0005489,8.97422157 L57.3009166,10.6475115 C56.241595,11.6905832 54.9350791,12.9754995 54.3968631,13.5035265 C54.1292734,13.7660511 53.8859454,14.0094068 53.710981,14.1882069 C53.7089988,14.1909625 53.7077099,14.1914069 53.7057543,14.1940736 C53.9355899,14.2975714 54.4842747,14.5579049 55.1204515,14.8656962 C56.6867002,15.6234656 57.8641366,16.1910215 58.519716,16.503835 L58.519716,16.503835 L58.8939196,16.6820795 L59.0973515,16.5865861 C59.2785724,16.5014039 60.5767745,15.884079 61.9709259,15.2203275 C62.6670743,14.8888918 63.3002995,14.5833405 63.7582724,14.358327 C63.9143892,14.2816159 64.016275,14.2300603 64.126879,14.1744825 C63.9881212,14.0301313 63.8164937,13.8524778 63.5890551,13.6195132 C63.0787578,13.0968285 62.3740019,12.3805303 61.5985837,11.5975076 L61.5985837,11.5975076 L59.0005489,8.97422157 Z M66.9385556,10.5204092 C66.9135627,10.5760625 66.8899845,10.628307 66.8555045,10.7061204 C66.7559961,10.9307827 66.6205752,11.2394807 66.4676125,11.5905165 C66.1616877,12.2925836 65.7853877,13.163713 65.4831069,13.8722867 L65.4831069,13.8722867 L65.4728535,13.896509 L68.9134905,13.8947312 L72.0293742,13.8929534 C70.9525765,12.8926906 69.4697509,11.8352411 68.0835799,11.0895117 C67.5470489,10.800876 67.1919933,10.6219514 66.9861578,10.5370403 C66.9583356,10.5254403 66.9607534,10.5287736 66.9385489,10.5208625 Z M50.9400951,10.5734759 C50.9174991,10.5840536 50.9045657,10.5891203 50.8788369,10.6014759 C50.720284,10.6778226 50.5066773,10.7868804 50.2741383,10.9097561 C49.8090467,11.1555073 49.2647375,11.4587742 48.9132477,11.6743832 C47.9255812,12.2802547 46.8757488,13.0856418 45.9951925,13.8933134 L45.9951925,13.8933134 L49.0221215,13.8950912 C50.5494929,13.896069 51.5093452,13.8929579 52.0792154,13.8826912 C52.2239883,13.880069 52.2762016,13.8752245 52.3728563,13.8721134 C52.3587163,13.8395334 52.3527574,13.8257656 52.3460801,13.8103456 L52.314994,13.7386644 C52.1798212,13.4276109 51.9974381,13.0081395 51.8004976,12.5556282 C51.406395,11.6501032 51.0320413,10.7846982 50.9581462,10.6079692 L50.9581462,10.6079692 Z M57.9517201,8.84788372 C56.6285118,8.92570598 55.4843301,9.0957772 54.2099778,9.42026184 C53.5582775,9.58621305 52.8526073,9.80777318 52.32247,10.0016711 C52.0626256,10.0967111 51.847543,10.1852445 51.7056372,10.2530179 C51.7486745,10.3558357 51.8007896,10.4792447 51.8673901,10.6359559 C52.0177923,10.9898583 52.2174429,11.4560631 52.4188958,11.9241345 C52.6203491,12.3922147 52.8236958,12.862295 52.981602,13.2247619 C53.0433695,13.3665309 53.0903388,13.4739576 53.1352699,13.5759666 C53.3625259,13.3687175 53.7611477,12.9780417 54.644532,12.1082946 C55.330355,11.4330586 56.4913536,10.2890046 57.2238388,9.56616415 L57.2238388,9.56616415 Z M60.0367559,8.84330594 L60.115451,8.92418598 C61.1057367,9.94111104 62.3289463,11.1774718 63.3081689,12.156299 C63.7977768,12.6457127 64.2265119,13.0709929 64.533743,13.3713709 C64.6105181,13.4464287 64.6536207,13.4871221 64.7141607,13.5455754 C64.7456123,13.4763665 64.7682065,13.4283176 64.8065443,13.3427531 C64.9691394,12.9798418 65.1887544,12.4811081 65.4255518,11.9354322 L65.5252453,11.7048803 C65.7211513,11.2501807 65.8948602,10.8371001 66.0227859,10.5231381 C66.0804912,10.3815069 66.1190406,10.2817868 66.1556139,10.1868623 C66.0270437,10.1342356 65.8609219,10.0700756 65.6684944,9.99990218 C65.2568304,9.84976432 64.7560354,9.68079533 64.4031025,9.57870193 C63.0592373,9.18994614 61.4940726,8.93031932 60.0367559,8.84330594 L60.0367559,8.84330594 Z" transform="translate(-38.25 -8)"/>
</svg>
